<?xml version="1.0" standalone="no" ?>
<!DOCTYPE svg PUBLIC "-//W3C//DTD SVG 1.1//EN" "http://www.w3.org/Graphics/SVG/1.1/DTD/svg11.dtd">
<svg  width="120.70843199999999px" height="180.260632px" viewBox="15.908884 -30.274316 120.70843199999999 180.260632 " xmlns="http://www.w3.org/2000/svg" version="1.1">
<path d="M87.2013,-27.953 L93.5819,-24.6108 L93.8858,-21.2686 L87.809,-17.0149 L81.7323,-16.4072 L81.4284,-15.7995 L79.6054,-1.51919 L76.8709,4.55756 L73.5287,19.7494 L74.4402,28.2569 L79.9092,43.7526 L82.0361,48.0063 L84.7706,50.7409 L87.809,51.9562 L97.5318,52.8677 L99.3548,53.7792 L106.951,53.7792 L108.774,51.9562 L113.331,51.6524 L117.585,52.26 L120.016,53.4754 L127.308,53.7792 L129.435,54.6907 L130.346,56.2099 L134.296,57.4253 L134.296,61.0713 L131.258,60.7675 L131.865,63.502 L129.435,65.0212 L126.396,65.0212 L125.485,65.9327 L125.485,67.4519 L123.662,68.0596 L123.054,71.098 L118.497,70.7941 L119.712,74.4402 L121.839,76.2632 L125.181,77.4785 L126.7,79.9092 L130.346,81.7323 L132.473,83.8591 L132.777,86.2898 L132.169,87.2013 L127.308,87.2013 L124.573,86.2898 L124.573,87.809 L126.396,88.7205 L126.093,89.9359 L114.547,89.9359 L114.547,91.4551 L118.193,92.0627 L119.712,93.8858 L119.712,95.405 L117.281,96.9241 L111.508,98.1395 L111.508,98.7472 L113.331,99.051 L113.939,103.305 L110.293,106.951 L108.774,106.951 L108.774,106.343 L106.343,106.951 L106.343,109.989 L105.128,111.205 L101.786,112.42 L103.609,113.939 L99.9625,121.535 L98.1395,123.358 L93.2781,122.75 L93.8858,124.877 L92.6704,125.789 L90.5436,125.789 L88.7205,127.308 L86.5937,124.27 L86.2898,121.231 L84.163,121.231 L83.2515,123.054 L84.7706,123.358 L85.0745,126.093 L85.986,126.396 L86.2898,127.916 L87.2013,127.916 L87.2013,129.435 L85.0745,133.081 L81.7323,133.385 L79.9092,136.119 L76.8709,135.815 L75.3517,136.727 L73.8325,135.512 L71.7056,135.815 L71.7056,137.335 L73.5287,137.942 L73.8325,139.158 L69.8826,141.284 L68.9711,144.323 L65.9327,145.538 L64.4135,147.665 L57.1214,147.665 L55.9061,146.146 L51.3485,145.538 L51.6524,142.5 L48.9178,142.196 L48.3102,139.461 L44.9679,138.55 L45.2718,135.815 L43.1449,135.512 L43.1449,133.385 L45.5756,132.169 L45.5756,130.346 L44.9679,129.131 L41.0181,129.739 L40.1065,128.827 L40.1065,127.916 L43.4488,127.612 L44.0564,126.396 L41.3219,125.485 L35.8528,125.789 L35.8528,124.573 L31.5991,122.446 L25.5223,121.839 L22.7878,119.712 L19.4456,119.104 L18.8379,114.243 L21.5725,112.724 L26.4339,112.42 L26.4339,109.989 L24.9147,108.774 L24.9147,107.558 L35.549,107.255 L36.4605,105.432 L38.8912,104.824 L39.4989,103.912 L43.7526,104.52 L46.1833,103.001 L49.5255,103.305 L52.8677,100.57 L60.7675,82.6438 L61.3752,75.3517 L61.0713,72.6171 L59.2483,68.3634 L57.7291,66.8442 L55.6023,66.8442 L52.26,68.6673 L51.0447,70.4903 L49.8293,78.0862 L54.6907,78.6939 L54.6907,79.6054 L52.8677,81.4284 L52.8677,82.6438 L50.7409,82.9476 L50.7409,84.163 L48.3102,84.163 L48.3102,84.7706 L45.8795,85.3783 L45.8795,86.5937 L42.2334,86.5937 L42.2334,88.1129 L40.1065,88.1129 L40.1065,88.7205 L38.5874,88.7205 L37.9797,86.5937 L36.4605,86.5937 L36.4605,89.0244 L35.2451,89.632 L34.0298,89.632 L33.1183,87.809 L32.5106,88.4167 L27.0415,88.4167 L26.7377,87.5052 L24.9147,87.2013 L24.9147,85.986 L22.1801,85.986 L22.484,83.8591 L20.3571,83.2515 L20.0533,81.1246 L18.2302,78.6939 L18.8379,78.0862 L22.484,78.0862 L22.7878,78.9977 L26.13,78.9977 L26.4339,75.0478 L27.3454,75.0478 L27.3454,74.4402 L24.6108,72.6171 L25.8262,71.7056 L30.3837,71.7056 L31.5991,72.0095 L31.9029,72.921 L33.4221,72.921 L33.4221,72.3133 L36.7643,71.4018 L38.8912,71.4018 L39.195,72.3133 L40.4104,72.6171 L43.7526,71.4018 L46.4871,68.3634 L51.9562,64.7174 L55.9061,58.3368 L56.8176,54.9946 L56.8176,44.9679 L55.2984,34.0298 L55.2984,24.9147 L56.5138,19.7494 L61.3752,10.3305 L63.1982,-6.68442 L61.679,-15.1919 L53.7792,-21.8763 L53.7792,-23.3955 L56.2099,-26.4339 L59.856,-27.953 L87.2013,-27.953" fill="rgb(100,244,40)" stroke-width="0.2" stroke="rgb(33,81,13)" />

<path d="M57.4253,102.697 L56.5138,101.786 L56.8176,101.482 L56.8176,100.57 L57.1214,100.266 L57.1214,99.3548 L57.4253,99.051 L57.4253,98.4433 L57.7291,98.1395 L57.7291,97.8357 L58.033,97.5318 L58.3368,97.8357 L58.3368,98.4433 L58.6406,98.7472 L58.6406,99.3548 L58.9445,99.6587 L58.9445,100.57 L59.2483,100.874 L58.9445,101.178 L58.9445,101.786 L58.3368,102.393 L58.3368,102.697 L57.4253,102.697" fill="rgb(255,255,255)" stroke-width="0.2" stroke="rgb(85,85,85)" />

<path d="M74.4402,79.9092 L73.2248,79.9092 L73.2248,77.7824 L72.0095,76.567 L72.0095,75.0478 L72.3133,74.744 L72.3133,73.5287 L72.921,73.5287 L73.5287,74.1363 L73.5287,74.4402 L74.4402,75.3517 L74.4402,75.6555 L74.744,75.9594 L74.744,76.8709 L74.4402,77.1747 L74.4402,79.9092" fill="rgb(255,255,255)" stroke-width="0.2" stroke="rgb(85,85,85)" />

<path d="M44.9679,77.4785 L44.9679,76.567 L45.2718,76.2632 L45.2718,75.6555 L46.791,74.1363 L46.791,73.8325 L47.0948,73.5287 L47.3986,73.5287 L47.7025,73.2248 L47.7025,72.921 L48.0063,72.6171 L48.3102,72.6171 L48.614,72.921 L48.614,73.2248 L48.9178,73.5287 L48.9178,74.4402 L48.614,74.744 L48.614,75.6555 L48.3102,75.9594 L48.3102,76.2632 L47.7025,76.8709 L47.3986,76.8709 L47.0948,77.1747 L46.4871,77.1747 L46.1833,77.4785 L44.9679,77.4785" fill="rgb(255,255,255)" stroke-width="0.2" stroke="rgb(85,85,85)" />

<path d="M35.2451,76.8709 L35.2451,75.6555 L34.9413,75.3517 L35.549,74.744 L35.549,74.4402 L35.8528,74.1363 L36.1567,74.1363 L36.4605,73.8325 L37.9797,73.8325 L38.2835,74.1363 L39.4989,74.1363 L39.8027,74.4402 L42.5372,74.4402 L42.5372,74.744 L42.2334,75.0478 L42.2334,75.3517 L41.9296,75.6555 L41.9296,75.9594 L40.1065,77.7824 L39.4989,77.7824 L39.195,77.4785 L38.8912,77.4785 L38.5874,77.1747 L37.9797,77.1747 L37.6758,76.8709 L35.2451,76.8709" fill="rgb(255,255,255)" stroke-width="0.2" stroke="rgb(85,85,85)" />

<path d="M70.1865,80.2131 L68.9711,80.2131 L68.9711,79.3016 L69.2749,78.9977 L69.2749,76.567 L68.9711,76.2632 L68.9711,72.921 L68.6673,72.6171 L68.6673,71.7056 L68.3634,71.4018 L68.0596,71.4018 L68.0596,70.4903 L67.7558,70.1865 L67.7558,69.5788 L67.4519,69.2749 L67.4519,68.6673 L67.1481,68.3634 L67.1481,68.0596 L66.8442,67.7558 L66.8442,67.4519 L66.5404,67.1481 L66.5404,66.5404 L66.2366,66.2366 L66.2366,65.9327 L65.9327,65.6289 L65.9327,64.7174 L65.6289,64.4135 L65.6289,62.2867 L66.5404,62.2867 L66.5404,62.5905 L66.8442,62.8944 L66.8442,63.1982 L67.1481,63.502 L67.1481,63.8059 L67.4519,64.1097 L67.4519,64.4135 L67.7558,64.7174 L67.7558,65.3251 L68.0596,65.6289 L68.0596,66.2366 L68.3634,66.5404 L68.3634,67.4519 L68.6673,67.7558 L68.6673,68.6673 L68.9711,68.9711 L68.9711,70.1865 L69.2749,70.4903 L69.2749,71.4018 L69.5788,71.7056 L69.5788,72.6171 L69.8826,72.921 L69.8826,74.1363 L70.1865,74.4402 L70.1865,76.8709 L70.4903,77.1747 L70.4903,78.0862 L70.7941,78.3901 L70.7941,78.9977 L70.1865,79.6054 L70.1865,80.2131" fill="rgb(255,255,255)" stroke-width="0.2" stroke="rgb(85,85,85)" />

<path d="M65.3251,101.178 L63.502,101.178 L63.1982,100.874 L62.8944,100.874 L62.5905,100.57 L61.679,100.57 L61.679,99.6587 L61.3752,99.3548 L61.3752,98.7472 L61.0713,98.4433 L61.0713,97.5318 L60.7675,97.228 L60.7675,96.9241 L60.4637,96.6203 L60.4637,95.405 L60.1598,95.1011 L60.1598,92.6704 L60.7675,92.0627 L60.7675,91.7589 L61.0713,91.4551 L61.0713,91.1512 L61.9828,90.2397 L62.2867,90.2397 L62.5905,90.5436 L62.8944,90.5436 L63.1982,90.8474 L63.502,90.8474 L63.502,92.0627 L63.1982,92.0627 L62.5905,92.6704 L62.2867,92.6704 L61.9828,92.9743 L61.9828,93.8858 L63.1982,95.1011 L63.1982,95.7088 L62.8944,96.0126 L62.8944,97.5318 L63.8059,98.4433 L64.1097,98.4433 L65.0212,99.3548 L65.0212,99.9625 L65.3251,100.266 L65.3251,101.178" fill="rgb(255,255,255)" stroke-width="0.2" stroke="rgb(85,85,85)" />

<path d="M76.8709,79.3016 L76.567,78.9977 L76.567,78.6939 L76.8709,78.3901 L76.8709,77.1747 L77.1747,76.8709 L77.1747,76.2632 L77.4785,75.9594 L77.4785,75.6555 L77.7824,75.3517 L77.7824,74.744 L78.0862,74.4402 L78.0862,74.1363 L78.3901,73.8325 L78.3901,73.5287 L78.6939,73.2248 L78.6939,72.921 L78.9977,72.6171 L78.9977,72.3133 L79.3016,72.0095 L79.3016,71.7056 L79.6054,71.4018 L79.6054,71.098 L79.9092,70.7941 L79.9092,70.4903 L81.4284,68.9711 L81.7323,68.9711 L82.6438,68.0596 L82.9476,68.0596 L83.2515,67.7558 L83.8591,67.7558 L84.163,68.0596 L84.163,68.6673 L84.4668,68.9711 L84.4668,69.2749 L84.7706,69.5788 L84.7706,69.8826 L85.0745,70.1865 L85.0745,70.7941 L84.7706,71.098 L84.4668,71.098 L83.5553,72.0095 L83.5553,74.1363 L82.9476,74.744 L82.3399,74.744 L81.7323,75.3517 L81.7323,76.2632 L81.4284,76.567 L81.4284,76.8709 L81.1246,76.8709 L80.8208,77.1747 L80.2131,77.1747 L79.6054,77.7824 L79.3016,77.7824 L78.0862,78.9977 L78.0862,79.3016 L76.8709,79.3016" fill="rgb(255,255,255)" stroke-width="0.2" stroke="rgb(85,85,85)" />

<path d="M75.6555,73.8325 L74.4402,72.6171 L74.4402,72.3133 L73.8325,71.7056 L73.8325,71.4018 L73.5287,71.098 L73.5287,70.7941 L73.2248,70.4903 L73.2248,70.1865 L72.921,69.8826 L72.921,69.5788 L72.6171,69.2749 L72.6171,68.6673 L72.3133,68.3634 L72.3133,67.4519 L71.7056,66.5404 L71.7056,65.0212 L71.4018,64.7174 L71.4018,62.2867 L71.098,61.9828 L71.098,60.4637 L70.7941,60.1598 L70.7941,59.2483 L70.4903,58.9445 L70.4903,58.033 L69.8826,57.1214 L69.8826,56.8176 L69.5788,56.5138 L69.5788,55.9061 L68.9711,54.9946 L68.9711,54.6907 L67.7558,53.1716 L67.7558,52.8677 L67.1481,52.26 L67.1481,51.9562 L66.5404,51.3485 L66.5404,51.0447 L66.2366,50.7409 L66.2366,50.437 L65.9327,50.1332 L65.9327,49.8293 L65.6289,49.5255 L65.6289,49.2217 L65.3251,48.9178 L65.3251,48.3102 L65.0212,48.0063 L65.0212,46.4871 L64.7174,46.1833 L64.7174,44.3603 L64.4135,44.0564 L64.4135,41.0181 L64.7174,40.7142 L64.7174,38.8912 L65.0212,38.5874 L65.0212,37.9797 L65.3251,37.6758 L65.3251,37.0682 L66.2366,37.0682 L66.5404,37.372 L67.1481,37.372 L67.4519,37.6758 L67.7558,37.6758 L68.3634,38.2835 L68.6673,38.2835 L69.8826,39.8027 L69.8826,40.1065 L70.1865,40.4104 L70.1865,40.7142 L70.4903,41.0181 L70.4903,41.3219 L71.098,41.9296 L71.098,42.2334 L72.921,44.0564 L72.921,44.3603 L73.2248,44.6641 L73.2248,44.9679 L73.5287,45.2718 L73.5287,45.5756 L74.1363,46.1833 L74.1363,46.4871 L74.4402,46.791 L74.4402,47.0948 L75.0478,47.7025 L75.0478,48.0063 L75.3517,48.3102 L75.3517,48.614 L75.6555,48.9178 L75.6555,49.2217 L76.2632,49.8293 L76.2632,50.1332 L76.567,50.437 L76.567,50.7409 L77.1747,51.3485 L77.1747,51.6524 L77.4785,51.9562 L77.4785,52.26 L77.7824,52.5639 L77.7824,52.8677 L78.0862,53.1716 L78.0862,53.7792 L78.6939,54.6907 L78.6939,54.9946 L78.9977,55.2984 L78.9977,55.6023 L79.3016,55.9061 L79.3016,56.5138 L79.6054,56.8176 L79.6054,57.4253 L79.9092,57.7291 L79.9092,58.6406 L80.2131,58.9445 L80.2131,59.5521 L80.5169,59.856 L80.5169,60.7675 L80.8208,61.0713 L80.8208,62.5905 L81.1246,62.8944 L81.1246,64.7174 L80.5169,65.6289 L80.5169,65.9327 L80.2131,66.2366 L80.2131,66.5404 L79.9092,66.8442 L79.9092,67.1481 L79.6054,67.4519 L79.6054,67.7558 L78.9977,68.3634 L78.9977,68.6673 L78.6939,68.9711 L78.6939,69.2749 L77.4785,70.7941 L77.4785,71.098 L77.1747,71.4018 L77.1747,71.7056 L76.567,72.3133 L76.567,72.6171 L75.9594,73.2248 L75.9594,73.5287 L75.6555,73.8325" fill="rgb(255,255,255)" stroke-width="0.2" stroke="rgb(85,85,85)" />

<path d="M68.46286,52.085245 L68.50761,52.06856 L68.53471,52.029215 L68.5588,51.99285 L68.59217,51.95355 L68.622685,51.92353 L68.65012,51.87521 L68.6769,51.8326 L68.706825,51.79299 L68.76485,51.708705 L68.77697,51.65423 L68.780035,51.57254 L68.77725,51.49689 L68.774085,51.439415 L68.770735,51.39405 L68.758705,51.34263 L68.74345,51.273075 L68.73472,51.21251 L68.713525,51.17312 L68.68931,51.11567 L68.679625,51.073475 L68.68599,51.01891 L68.689245,50.958425 L68.696015,50.904055 L68.698465,50.84347 L68.720185,50.7954 L68.749425,50.737455 L68.76424,50.679955 L68.768255,50.61054 L68.76133,50.56823 L68.7407,50.51065 L68.689265,50.495222 L68.63775,50.477372 L68.586375,50.444029 L68.53472,50.417212 L68.468215,50.3777675 L68.407675,50.350679 L68.33515,50.320265 L68.256645,50.295629 L68.20818,50.2746665 L68.135515,50.2536945 L68.081125,50.244338 L68.038695,50.2203615 L67.990145,50.1964685 L67.926785,50.168913 L67.88449,50.138548 L67.83298,50.114509 L67.775135,50.0818375 L67.72693,50.04815915 L67.672895,50.01723375 L67.63643,49.9993621 L67.587975,49.97526785 L67.551715,49.95401685 L67.50343,49.9175675 L67.458085,49.869188 L67.412495,49.836122 L67.37905,49.812156 L67.343095,49.775429 L67.3039,49.7299525 L67.27023,49.684902 L67.234205,49.6423225 L67.203715,49.609255 L67.16748,49.5728895 L67.14313,49.542758 L67.12229,49.5092405 L67.088995,49.48193 L67.071035,49.44866 L67.04332,49.400525 L67.01336,49.361 L66.98903,49.32782 L66.967995,49.28239 L66.946755,49.25214 L66.925785,49.21874 L66.89201,49.164595 L66.85872,49.107115 L66.834535,49.06779 L66.79807,49.00131 L66.77733,48.96477 L66.75609,48.916405 L66.7315,48.87731 L66.716905,48.82561 L66.69539,48.77127 L66.680285,48.71679 L66.665155,48.674455 L66.65882,48.63211 L66.656355,48.58666 L66.653685,48.547305 L66.653085,48.508015 L66.652335,48.456585 L66.65036,48.41422 L66.64699,48.368865 L66.647215,48.32348 L66.647205,48.2781 L66.65644,48.250945 L66.66856,48.205555 L66.67733,48.141955 L66.68004,48.111675 L66.69563,48.045175 L66.710865,48.002865 L66.726585,47.963775 L66.74084,47.918065 L66.755795,47.887715 L66.771455,47.85166 L66.78635,47.81526 L66.80454,47.77898 L66.82238,47.739505 L66.84671,47.6972 L66.86496,47.667005 L66.88928,47.63381 L66.89824,47.6065 L66.92226,47.57008 L66.952805,47.53096 L66.96168,47.503615 L66.983015,47.47344 L67.004295,47.44326 L67.01928,47.41896 L67.04351,47.40086 L67.070745,47.35848 L67.082545,47.33412 L67.1042,47.3133 L67.125435,47.279975 L67.152475,47.25875 L67.176265,47.23411 L67.221995,47.2012 L67.252205,47.173915 L67.28561,47.15294 L67.32457,47.12517 L67.34888,47.11018 L67.397345,47.08003 L67.43977,47.052915 L67.49109,47.028495 L67.551665,47.00142 L67.58788,46.980095 L67.63336,46.95909 L67.699885,46.93781 L67.751405,46.922995 L67.799725,46.9076 L67.878435,46.889635 L67.932915,46.874595 L67.993345,46.859185 L68.05387,46.859235 L68.129495,46.84414 L68.19001,46.83818 L68.23841,46.83818 L68.32009,46.838125 L68.38362,46.83784 L68.45624,46.843975 L68.51369,46.85032 L68.574175,46.86546 L68.63165,46.8776 L68.689215,46.89848 L68.73468,46.91949 L68.77995,46.9409 L68.831355,46.97725 L68.900945,47.0105 L68.943595,47.05563 L69.00367,47.0834 L69.043145,47.107295 L69.0763,47.1377 L69.124965,47.176715 L69.16396,47.21642 L69.20315,47.2649 L69.24591,47.30994 L69.29126,47.35836 L69.33931,47.410125 L69.38485,47.46441 L69.415535,47.545885 L69.457815,47.624525 L69.484635,47.6943 L69.5091365,47.77285 L69.524141,47.83339 L69.514838,47.905975 L69.487845,47.963495 L69.484745,48.03911 L69.46381,48.111775 L69.439205,48.16911 L69.40592,48.253815 L69.382085,48.320505 L69.35485,48.378 L69.33352,48.42633 L69.31214,48.47464 L69.28531,48.535325 L69.25508,48.58679 L69.23054,48.635005 L69.20348,48.68652 L69.17323,48.756095 L69.13052,48.819395 L69.106535,48.86796 L69.07964,48.91353 L69.046205,48.97696 L69.00986,49.01022 L68.97646,49.052475 L68.94035,49.0799 L68.907115,49.128275 L68.873635,49.15229 L68.764485,49.20622 L68.686005,49.233675 L68.583365,49.273615 L68.48346,49.276805 L68.380685,49.289265 L68.277735,49.288245 L68.18698,49.29151 L68.08113,49.28209 L68.011525,49.276335 L67.944965,49.276485 L67.87227,49.26172 L67.817905,49.23709 L67.7483,49.19479 L67.699895,49.143335 L67.66116,49.11232 L67.62765,49.067435 L67.596925,49.0133 L67.55741,48.96509 L67.52716,48.913585 L67.494175,48.868035 L67.460685,48.825855 L67.421465,48.78344 L67.39433,48.725855 L67.36723,48.68947 L67.33376,48.63211 L67.2946,48.58965 L67.273425,48.53522 L67.255365,48.489805 L67.227925,48.44453 L67.21288,48.41423 L67.204085,48.35671 L67.19177,48.30833 L67.176225,48.27827 L67.167475,48.223645 L67.161475,48.172215 L67.17019,48.120735 L67.173865,48.0603 L67.194825,48.002845 L67.20671,47.9574 L67.20706,47.927175 L67.227875,47.8757 L67.237375,47.81832 L67.2463,47.785035 L67.26744,47.72453 L67.28517,47.67899 L67.31259,47.624605 L67.321585,47.597365 L67.35493,47.548945 L67.38816,47.50051 L67.424775,47.4675 L67.451805,47.421935 L67.490625,47.38506 L67.5429,47.346715 L67.590925,47.318945 L67.66676,47.273915 L67.733115,47.249295 L67.796765,47.23455 L67.848015,47.20989 L67.917705,47.19789 L67.972185,47.195015 L68.01449,47.179795 L68.059925,47.179925 L68.12042,47.17386 L68.171875,47.168015 L68.2505,47.16453 L68.37153,47.167475 L68.444125,47.18598 L68.510725,47.20702 L68.56217,47.225155 L68.60735,47.25578 L68.677185,47.29165 L68.722255,47.32842 L68.798035,47.385715 L68.864735,47.436955 L68.925245,47.4732 L68.9797,47.5338 L69.018995,47.585265 L69.06728,47.67005 L69.097925,47.76067 L69.11257,47.86669 L69.112535,47.96953 L69.100565,48.063305 L69.091315,48.138915 L69.06697,48.232635 L69.03087,48.320395 L69.00952,48.368715 L68.97649,48.42327 L68.943305,48.47173 L68.913335,48.52332 L68.87945,48.586515 L68.825545,48.62934 L68.779525,48.70441 L68.73145,48.74996 L68.692065,48.780115 L68.62575,48.816795 L68.55612,48.846985 L68.47783,48.90191 L68.371525,48.916445 L68.26861,48.94041 L68.159765,48.913345 L68.07493,48.877365 L67.99954,48.83452 L67.942275,48.7979 L67.84525,48.73473 L67.775515,48.67747 L67.715135,48.63796 L67.66969,48.56851 L67.627535,48.49881 L67.60623,48.438405 L67.578945,48.39606 L67.56955,48.32957 L67.554855,48.25992 L67.53902,48.2361 L67.51505,48.181445 L67.49709,48.108725 L67.481705,48.042225 L67.49095,47.951355 L67.50918,47.908955 L67.53339,47.85451 L67.554555,47.8061 L67.594095,47.74267 L67.63347,47.688255 L67.663545,47.65182 L67.70282,47.60941 L67.778545,47.567115 L67.87541,47.53094 L67.993395,47.522095 L68.12041,47.515395 L68.223275,47.524945 L68.34427,47.53711 L68.42879,47.558925 L68.48962,47.60332 L68.546705,47.658225 L68.601315,47.70345 L68.6623,47.784725 L68.70729,47.836445 L68.73792,47.890675 L68.749445,47.963515 L68.74337,48.051195 L68.734785,48.17829 L68.695125,48.2478 L68.6436,48.34153 L68.601425,48.40516 L68.53774,48.4958 L68.479935,48.549845 L68.419925,48.58668 L68.29892,48.592855 L68.22026,48.59274 L68.132565,48.568385 L68.059805,48.53855 L68.0116,48.513905 L67.972135,48.48085 L67.92971,48.438565 L67.88756,48.396005 L67.856855,48.360095 L67.83003,48.30834 L67.82126,48.25989 L67.80892,48.196405 L67.808935,48.12684 L67.820855,48.06632 L67.848395,47.99382 L67.88444,47.930195 L67.920865,47.884905 L67.941675,47.86039 L67.97483,47.83883 L68.0327,47.81223 L68.09319,47.784975 L68.144635,47.778975 L68.186925,47.782765 L68.2505,47.788145 L68.292845,47.79719 L68.33529,47.81812 L68.37774,47.860455 L68.42616,47.905795 L68.450055,47.97562 L68.441065,48.069355 L68.422845,48.16312 L68.38375,48.22373 L68.33529,48.27817 L68.27792,48.305715 L68.202095,48.308125 L68.13259,48.274955 L68.06344,48.22298 L68.027035,48.14179 L68.045055,48.069425 L68.087105,48.03301 L68.147655,48.03317 L68.1717,48.05142 L68.19592,48.11479 L68.226125,48.15722 L68.26871,48.165925 L68.304985,48.163375 L68.32357,48.124025 L68.32034,48.08144 L68.31999,48.01491 L68.268745,47.97245 L68.226455,47.9391 L68.15656,47.91248 L68.081005,47.92671 L68.044755,47.94829 L68.011755,47.981865 L67.96593,48.01462 L67.929985,48.051355 L67.926495,48.1238 L67.93904,48.1964 L67.953965,48.238795 L67.99044,48.29922 L68.041895,48.359675 L68.10215,48.405325 L68.162865,48.44739 L68.24131,48.47212 L68.31704,48.47808 L68.398775,48.450625 L68.435015,48.40816 L68.47408,48.36255 L68.510585,48.326415 L68.541115,48.28428 L68.58015,48.199395 L68.604695,48.108755 L68.604465,48.017935 L68.59566,47.93925 L68.54967,47.842625 L68.50183,47.775755 L68.40793,47.691095 L68.304995,47.657835 L68.187,47.642655 L68.08715,47.64185 L67.990395,47.658265 L67.9268,47.688155 L67.83602,47.73651 L67.79076,47.78205 L67.742245,47.818225 L67.71534,47.860815 L67.685045,47.90014 L67.657275,47.9785 L67.64254,48.05123 L67.642625,48.09659 L67.654655,48.14799 L67.669585,48.208545 L67.69056,48.27517 L67.712245,48.34156 L67.735845,48.41134 L67.77279,48.456375 L67.80608,48.5048 L67.84519,48.54426 L67.881435,48.59272 L67.927095,48.6439 L67.999325,48.692695 L68.04186,48.719635 L68.08704,48.744185 L68.141455,48.762575 L68.17795,48.7741 L68.27774,48.78017 L68.323185,48.756215 L68.392675,48.731825 L68.443855,48.71006 L68.50159,48.677405 L68.580105,48.631785 L68.631845,48.60512 L68.662175,48.56872 L68.70724,48.520045 L68.75257,48.46254 L68.79819,48.39919 L68.84351,48.314435 L68.864625,48.256925 L68.89472,48.16309 L68.90706,48.08753 L68.934025,48.020885 L68.93729,47.91205 L68.93092,47.82131 L68.88261,47.712465 L68.84664,47.666875 L68.807435,47.615365 L68.77688,47.585345 L68.728485,47.527855 L68.6924,47.494345 L68.65275,47.464465 L68.63194,47.4369 L68.54715,47.388395 L68.50178,47.367125 L68.435065,47.3523 L68.371505,47.331265 L68.292845,47.31923 L68.18699,47.315695 L68.087135,47.318635 L68.029635,47.331045 L67.96603,47.35818 L67.887445,47.373355 L67.82687,47.39442 L67.769545,47.41904 L67.715155,47.446375 L67.66988,47.479725 L67.569895,47.54911 L67.51829,47.5973 L67.472865,47.65478 L67.427715,47.739645 L67.385235,47.833365 L67.355185,47.918145 L67.35184,47.984645 L67.3584,48.1238 L67.367005,48.23878 L67.397205,48.33262 L67.43353,48.42338 L67.469735,48.490015 L67.50334,48.55034 L67.548975,48.622775 L67.57921,48.68636 L67.645525,48.762085 L67.696995,48.825585 L67.75438,48.871035 L67.8181,48.91615 L67.86021,48.973935 L67.90586,49.00992 L67.950895,49.055695 L68.02967,49.06467 L68.0903,49.0916 L68.168805,49.09827 L68.30799,49.09488 L68.41084,49.09171 L68.48049,49.073985 L68.53489,49.064715 L68.598375,49.04639 L68.67706,49.0223 L68.73155,48.998175 L68.798175,48.952865 L68.84004,48.89496 L68.8586,48.85895 L68.903735,48.804305 L68.949605,48.74115 L68.973695,48.67446 L69.01278,48.616865 L69.055165,48.562435 L69.079455,48.508035 L69.12184,48.45362 L69.155075,48.402155 L69.185125,48.341545 L69.215155,48.283945 L69.25166,48.229565 L69.272995,48.18733 L69.30017,48.10866 L69.318055,48.029955 L69.32447,47.906 L69.31846,47.79709 L69.300455,47.709325 L69.25197,47.62459 L69.212525,47.5581 L69.17958,47.50043 L69.136845,47.45529 L69.10992,47.40067 L69.043145,47.334205 L69.000695,47.28589 L68.94598,47.234755 L68.904065,47.19194 L68.85532,47.156065 L68.8042,47.12536 L68.752505,47.095565 L68.71343,47.08294 L68.65879,47.05922 L68.531815,47.03495 L68.43512,47.016185 L68.30192,47.01097 L68.183965,47.00432 L68.10231,47.013875 L68.029665,47.03169 L67.987365,47.041015 L67.917725,47.04667 L67.838995,47.0677 L67.754335,47.11028 L67.672725,47.13164 L67.61816,47.15557 L67.551645,47.18591 L67.494115,47.21608 L67.445825,47.24653 L67.39434,47.282755 L67.346035,47.31919 L67.30645,47.349105 L67.251995,47.394505 L67.19188,47.46147 L67.161355,47.509645 L67.125165,47.59139 L67.097865,47.651865 L67.067475,47.74258 L67.04652,47.81223 L67.03141,47.878785 L67.0099,47.9513 L66.99849,48.024055 L66.982735,48.08746 L66.959935,48.17834 L66.946305,48.220515 L66.940525,48.275065 L66.93135,48.335555 L66.922365,48.40515 L66.924995,48.505005 L66.92517,48.57457 L66.93754,48.65323 L66.94933,48.72589 L66.973795,48.78334 L67.01318,48.849875 L67.034415,48.895225 L67.08283,48.967815 L67.13745,49.043325 L67.18852,49.11316 L67.246005,49.167655 L67.30356,49.23412 L67.349045,49.27637 L67.43084,49.345805 L67.49123,49.409475 L67.533615,49.442705 L67.59124,49.4879 L67.648835,49.520867 L67.705795,49.555044 L67.763475,49.591003 L67.83321,49.626997 L67.911675,49.6666955 L67.99057,49.708596 L68.06897,49.7514275 L68.14163,49.7845915 L68.220155,49.818173 L68.27769,49.8452405 L68.341675,49.874539 L68.39272,49.902579 L68.44434,49.9477585 L68.501565,49.9873839 L68.54699,50.0448046 L68.58022,50.087191 L68.60743,50.1355955 L68.613475,50.2112015 L68.63786,50.253479 L68.68614,50.2837935 L68.731515,50.284169 L68.78901,50.2535805 L68.82507,50.2170205 L68.870945,50.16302 L68.92525,50.114531 L68.973445,50.0809885 L69.04325,50.0389913 L69.12791,50.01182735 L69.206495,49.9783163 L69.2788,49.9473405 L69.331455,49.9157055 L69.396905,49.857081 L69.454575,49.821007 L69.545261,49.7875865 L69.620949,49.757487 L69.669308,49.7362045 L69.7327195,49.705709 L69.787477,49.68525 L69.8479845,49.657974 L69.8900645,49.6332115 L69.9355755,49.612282 L69.99900349,49.590832 L70.059595,49.585193 L70.1110095,49.554742 L70.2077525,49.5243 L70.2805165,49.500588 L70.3472925,49.47697 L70.4133655,49.457355 L70.4741,49.436965 L70.522385,49.418475 L70.58292,49.415335 L70.61627,49.42443 L70.652415,49.445985 L70.70114,49.481825 L70.743295,49.5123325 L70.788725,49.5364305 L70.867155,49.5912435 L70.921745,49.6424705 L70.948865,49.6818665 L70.976175,49.715089 L71.00042,49.757411 L71.0397,49.8058495 L71.07328,49.8449235 L71.103275,49.881444 L71.133465,49.9329095 L71.151765,49.97216275 L71.185655,50.0201208 L71.214815,50.06023 L71.242325,50.1174645 L71.26977,50.174837 L71.296875,50.223299 L71.336145,50.2868625 L71.36354,50.3351665 L71.387345,50.3747355 L71.42696,50.3749435 L71.445295,50.3444155 L71.43953,50.2837545 L71.42085,50.244502 L71.387715,50.199038 L71.37876,50.144608 L71.351215,50.084191 L71.317815,50.0419748 L71.275805,49.96911885 L71.26617,49.920864 L71.283945,49.8810675 L71.333185,49.8784675 L71.36323,49.9088775 L71.38766,49.932852 L71.41486,49.9326035 L71.432825,49.9085395 L71.451455,49.8755615 L71.484125,49.838809 L71.529705,49.796625 L71.55993,49.7633425 L71.617585,49.7302635 L71.684215,49.706309 L71.753595,49.69047 L71.83233,49.687685 L71.877655,49.703139 L71.93811,49.718535 L71.9986,49.7455885 L72.04704,49.7757035 L72.09259,49.814794 L72.126135,49.850873 L72.15313,49.8965025 L72.180385,49.9448955 L72.198255,50.0085467 L72.222965,50.071894 L72.24068,50.123486 L72.255695,50.18099 L72.27102,50.2323645 L72.29204,50.265731 L72.31339,50.286774 L72.34057,50.2868965 L72.38595,50.295876 L72.43435,50.314056 L72.44661,50.359388 L72.446085,50.4320355 L72.434275,50.48042 L72.416155,50.51369 L72.37688,50.54096 L72.322475,50.52856 L72.28612,50.522755 L72.25872,50.54375 L72.27718,50.5711 L72.31044,50.61345 L72.35265,50.640805 L72.39811,50.683055 L72.44023,50.71062 L72.482485,50.74997 L72.515925,50.7891 L72.567345,50.840545 L72.615905,50.89485 L72.661565,50.958185 L72.69441,51.009915 L72.730695,51.04929 L72.76725,51.09141 L72.81257,51.16106 L72.842585,51.251915 L72.860845,51.345655 L72.87638,51.47871 L72.87885,51.575565 L72.873,51.666315 L72.87881,51.757085 L72.86707,51.838765 L72.845755,51.9174 L72.809295,51.999005 L72.779195,52.0626 L72.73693,52.123155 L72.70664,52.16549 L72.667315,52.198775 L72.63699,52.23804 L72.58251,52.28033 L72.497985,52.33806 L72.39153,52.40678 L72.331475,52.470995 L72.286165,52.54365 L72.249845,52.625315 L72.21971,52.68588 L72.198515,52.72822 L72.15911,52.77056 L72.089485,52.767225 L72.06224,52.72211 L72.05914,52.67673 L72.083195,52.62519 L72.08088,52.58291 L72.04385,52.606775 L72.00172,52.640395 L71.94126,52.676745 L71.835375,52.686005 L71.768805,52.685815 L71.723365,52.66781 L71.67223,52.631025 L71.68113,52.576905 L71.73561,52.546785 L71.82029,52.522635 L71.880745,52.516435 L71.932165,52.516205 L71.934615,52.47702 L71.913935,52.46511 L71.88078,52.461515 L71.780935,52.47426 L71.69619,52.47685 L71.602495,52.44959 L71.581,52.404575 L71.5725,52.37411 L71.623535,52.343845 L71.702255,52.343985 L71.777875,52.356125 L71.82631,52.365 L71.841485,52.353125 L71.820385,52.310605 L71.78391,52.289545 L71.73251,52.292635 L71.64474,52.30126 L71.587315,52.289405 L71.541815,52.262445 L71.54206,52.219925 L71.57516,52.19265 L71.63869,52.174425 L71.720415,52.16864 L71.76882,52.17128 L71.811225,52.1803 L71.85951,52.216975 L71.898845,52.25627 L71.944245,52.283495 L71.986615,52.33186 L71.99259,52.310655 L71.995895,52.27439 L71.995265,52.225975 L71.987005,52.171455 L71.959305,52.129225 L71.922945,52.09909 L71.85351,52.09286 L71.79304,52.11412 L71.74771,52.126445 L71.681075,52.12622 L71.611535,52.10182 L71.578165,52.06872 L71.566435,52.02622 L71.620605,51.98097 L71.702245,51.94763 L71.76574,51.92034 L71.868635,51.91131 L71.93823,51.929465 L71.98058,51.956715 L72.025885,51.996135 L72.05918,52.059615 L72.092375,52.13225 L72.10438,52.20181 L72.11065,52.268325 L72.14998,52.268435 L72.20746,52.268415 L72.29215,52.225945 L72.346575,52.19262 L72.39501,52.171495 L72.43448,52.132325 L72.473725,52.102 L72.50692,52.074675 L72.54328,52.026325 L72.56424,51.974805 L72.59172,51.92046 L72.61851,51.847685 L72.63104,51.778255 L72.64646,51.729955 L72.66132,51.62394 L72.64906,51.554395 L72.62178,51.49394 L72.60064,51.427355 L72.56716,51.36092 L72.53422,51.30629 L72.51305,51.24277 L72.492055,51.188245 L72.45859,51.124785 L72.42205,51.05533 L72.394975,51.0129 L72.364995,50.96131 L72.337845,50.918895 L72.29536,50.86149 L72.273795,50.82544 L72.24053,50.7892 L72.195495,50.743495 L72.13182,50.740855 L72.08354,50.756105 L72.02904,50.79515 L71.965315,50.84329 L71.877695,50.87366 L71.79602,50.879595 L71.69315,50.87097 L71.61773,50.831 L71.581145,50.79516 L71.52373,50.749725 L71.490525,50.7073 L71.43891,50.680385 L71.381585,50.680055 L71.330245,50.704495 L71.27881,50.737715 L71.22134,50.771015 L71.163745,50.80712 L71.109185,50.837175 L71.042695,50.879665 L70.997215,50.90976 L70.945965,50.94029 L70.870425,50.985815 L70.803655,51.018695 L70.74339,51.07653 L70.67693,51.13413 L70.591875,51.206325 L70.55532,51.263725 L70.531435,51.315355 L70.528045,51.403105 L70.53146,51.4848 L70.56467,51.56048 L70.588625,51.609015 L70.60127,51.666275 L70.61913,51.717775 L70.631335,51.76312 L70.64964,51.808435 L70.676715,51.87505 L70.706895,51.97793 L70.73099,52.0415 L70.75514,52.09901 L70.770505,52.129165 L70.78865,52.207825 L70.809845,52.280415 L70.83721,52.346915 L70.879465,52.40744 L70.92467,52.437895 L70.98528,52.44082 L71.039735,52.413535 L71.130415,52.35594 L71.21208,52.31955 L71.29385,52.319725 L71.318275,52.34983 L71.32665,52.42267 L71.281715,52.46493 L71.2183,52.49839 L71.142585,52.504185 L71.073015,52.504385 L71.015565,52.51953 L71.0427,52.54067 L71.13656,52.549455 L71.21822,52.549455 L71.269565,52.528285 L71.32421,52.47718 L71.39075,52.43182 L71.460115,52.413065 L71.499515,52.42879 L71.527165,52.461635 L71.52087,52.546655 L71.46015,52.60706 L71.38157,52.631295 L71.299945,52.64673 L71.215205,52.64318 L71.127465,52.64363 L71.051835,52.6439 L70.991335,52.643785 L71.00023,52.66169 L71.060885,52.67382 L71.142625,52.68253 L71.26054,52.67323 L71.37553,52.67665 L71.460205,52.704065 L71.490225,52.76761 L71.46922,52.815845 L71.402755,52.824935 L71.27571,52.83416 L71.187965,52.83685 L71.11239,52.821695 L71.051835,52.80682 L71.00353,52.785415 L70.94905,52.75827 L70.927745,52.761015 L70.96121,52.809745 L71.006445,52.83406 L71.066965,52.86429 L71.07608,52.939915 L71.03057,52.97004 L70.958035,52.942995 L70.882365,52.89463 L70.81553,52.82225 L70.755515,52.77034 L70.721745,52.70413 L70.71936,52.64041 L70.727965,52.61012 L70.76472,52.5711 L70.776595,52.53456 L70.7677,52.49818 L70.73743,52.45875 L70.70702,52.39838 L70.6735,52.33801 L70.619355,52.256145 L70.591825,52.186715 L70.564535,52.11413 L70.53785,52.044345 L70.50709,51.984065 L70.4767345,51.91584 L70.4591725,51.84171 L70.4468705,51.787305 L70.413347,51.729945 L70.385569,51.6788 L70.3561405,51.608795 L70.337872,51.548335 L70.3164525,51.472775 L70.313177,51.36381 L70.3288205,51.282115 L70.353112,51.21862 L70.374197,51.167155 L70.4198655,51.08564 L70.476787,51.00059 L70.540705,50.928275 L70.58591,50.867635 L70.64333,50.825165 L70.71013,50.78927 L70.76141,50.76781 L70.818835,50.73747 L70.90076,50.704755 L70.961185,50.67426 L71.000375,50.661845 L71.043065,50.64139 L71.118445,50.60459 L71.14876,50.59266 L71.17891,50.589505 L71.2606,50.553105 L71.284605,50.516625 L71.263475,50.459308 L71.230235,50.4078925 L71.19704,50.365485 L71.157215,50.3236 L71.109375,50.256532 L71.06995,50.193069 L71.02412,50.142048 L70.99139,50.0961985 L70.95203,50.0266445 L70.89153,49.98426385 L70.843375,49.926596 L70.77948,49.8785415 L70.715775,49.8303685 L70.643405,49.7786345 L70.58293,49.769524 L70.516375,49.766589 L70.4014305,49.76045 L70.319717,49.7784875 L70.250109,49.796546 L70.1622815,49.8326875 L70.0900055,49.866716 L70.00215696,49.911822 L69.9146275,49.96058145 L69.847676,49.99616141 L69.7630815,50.0417411 L69.690626,50.093391 L69.626999,50.132585 L69.587401,50.1959205 L69.608817,50.2444755 L69.632761,50.2990435 L69.654138,50.3564285 L69.681471,50.428993 L69.701891,50.50182 L69.723738,50.58633 L69.757251,50.695165 L69.7780145,50.77394 L69.8024745,50.86463 L69.8144835,50.922125 L69.844955,51.01584 L69.8905245,51.121625 L69.9146535,51.18823 L69.923535,51.27303 L69.923521,51.351695 L69.9174735,51.42128 L69.914441,51.50901 L69.9081945,51.59975 L69.8806305,51.68432 L69.859814,51.726765 L69.8324775,51.787225 L69.811346,51.82353 L69.7749585,51.896105 L69.7447705,51.944515 L69.714669,51.983935 L69.675308,52.035335 L69.638909,52.0867 L69.5965945,52.14117 L69.57271,52.186745 L69.54247,52.2141 L69.512213,52.256365 L69.478545,52.292355 L69.44233,52.34085 L69.39394,52.38015 L69.35478,52.4257 L69.34871,52.46195 L69.363905,52.504245 L69.400165,52.53748 L69.43621,52.559045 L69.496815,52.57715 L69.5119925,52.616235 L69.493785,52.673675 L69.430365,52.694975 L69.369795,52.700575 L69.351685,52.725135 L69.336555,52.767485 L69.31235,52.767545 L69.28524,52.74315 L69.254745,52.719245 L69.203395,52.69499 L69.1612,52.673475 L69.118745,52.64042 L69.079435,52.6192 L69.027865,52.5953 L68.964505,52.567705 L68.903875,52.546865 L68.837305,52.522685 L68.794865,52.471165 L68.8314,52.45298 L68.855365,52.42547 L68.855925,52.38631 L68.873935,52.350125 L68.89778,52.334685 L68.97657,52.337535 L69.049195,52.346705 L69.109665,52.35304 L69.146145,52.323 L69.176415,52.271465 L69.22456,52.204755 L69.294275,52.12318 L69.33666,52.053605 L69.391345,51.962985 L69.45152,51.87203 L69.494175,51.7996 L69.533392,51.742085 L69.5691505,51.68425 L69.6176525,51.57545 L69.637646,51.48459 L69.6405215,51.43337 L69.6179385,51.366805 L69.5938485,51.269975 L69.5692515,51.191435 L69.5547305,51.085425 L69.535918,51.00689 L69.5239965,50.934235 L69.512324,50.85551 L69.496745,50.79207 L69.48172,50.73759 L69.469565,50.677095 L69.46049,50.583305 L69.45472,50.50765 L69.439555,50.4320065 L69.427075,50.362497 L69.42431,50.3140515 L69.402945,50.2717835 L69.35489,50.2501035 L69.291185,50.2717305 L69.22462,50.307999 L69.15794,50.3440765 L69.097185,50.3737935 L69.05213,50.3925675 L69.01309,50.4202675 L68.9766,50.4744185 L68.961505,50.531885 L68.96135,50.628675 L68.95243,50.683135 L68.93467,50.786065 L68.92215,50.90397 L68.925045,50.994725 L68.92198,51.082445 L68.949035,51.16725 L68.979875,51.221445 L69.00046,51.30639 L68.99464,51.45152 L68.99106,51.65118 L68.97573,51.74181 L68.9614,51.81757 L68.92826,51.89023 L68.888985,51.950785 L68.84356,52.01429 L68.813265,52.056615 L68.77696,52.083875 L68.71937,52.13214 L68.704115,52.198705 L68.725685,52.225805 L68.776895,52.226385 L68.834315,52.238345 L68.84077,52.298545 L68.80128,52.344115 L68.75873,52.346825 L68.72523,52.307855 L68.6889,52.26553 L68.677355,52.28365 L68.707315,52.30463 L68.740725,52.359 L68.731845,52.44685 L68.68907,52.486035 L68.640745,52.468025 L68.634465,52.42264 L68.61977,52.365085 L68.568105,52.28954 L68.60136,52.39843 L68.619655,52.492175 L68.610455,52.55571 L68.546955,52.56461 L68.507655,52.54361 L68.505075,52.470995 L68.516835,52.401455 L68.50796,52.35297 L68.495345,52.4256 L68.474415,52.47708 L68.4437,52.44297 L68.443945,52.37524 L68.424285,52.33173 L68.39595,52.297305 L68.342165,52.307785 L68.274345,52.298115 L68.25549,52.229985 L68.182465,52.220465 L68.11,52.19598 L68.09536,52.12853 L68.100245,52.07531 L68.14868,52.036695 L68.20187,52.02718 L68.274385,52.027505 L68.366305,52.0222 L68.404925,52.0416 L68.46286,52.085245" fill="rgb(250,100,100)" stroke-width="0.2" stroke="rgb(83,33,33)" />

<path d="M88.7205,66.8442 L87.809,66.8442 L87.809,65.3251 L87.5052,65.0212 L87.5052,63.502 L87.2013,63.1982 L87.2013,62.5905 L86.8975,62.2867 L86.8975,61.3752 L86.5937,61.0713 L86.5937,60.1598 L86.2898,59.856 L86.2898,59.2483 L85.986,58.9445 L85.986,58.6406 L85.6822,58.3368 L85.6822,57.7291 L85.3783,57.4253 L85.3783,56.8176 L85.0745,56.5138 L85.0745,55.9061 L84.7706,55.6023 L84.7706,54.9946 L84.4668,54.6907 L84.4668,54.0831 L84.163,53.7792 L84.163,53.4754 L84.7706,53.4754 L85.0745,53.7792 L85.986,53.7792 L86.2898,54.0831 L86.8975,54.0831 L87.2013,54.3869 L87.5052,54.3869 L87.809,54.6907 L88.4167,54.6907 L88.7205,54.9946 L89.0244,54.9946 L89.3282,55.2984 L89.9359,55.2984 L90.2397,55.6023 L90.5436,55.6023 L90.8474,55.9061 L91.1512,55.9061 L91.4551,56.2099 L92.0627,56.2099 L92.3666,56.5138 L92.6704,56.5138 L92.9743,56.8176 L93.2781,56.8176 L93.5819,57.1214 L93.8858,57.1214 L93.2781,57.7291 L92.9743,57.7291 L92.6704,58.033 L92.6704,58.3368 L92.3666,58.6406 L92.3666,58.9445 L92.0627,59.2483 L92.0627,59.856 L88.7205,63.1982 L88.7205,66.8442" fill="rgb(255,255,255)" stroke-width="0.2" stroke="rgb(85,85,85)" />

</svg>
