<?xml version="1.0" standalone="no" ?>
<!DOCTYPE svg PUBLIC "-//W3C//DTD SVG 1.1//EN" "http://www.w3.org/Graphics/SVG/1.1/DTD/svg11.dtd">
<svg  width="832.0px" height="832.0px" viewBox="-416.0 -416.0 832.0 832.0 " xmlns="http://www.w3.org/2000/svg" version="1.1">
<path d="M0.0,400.0 L-400.0,-400.0 L400.0,-400.0 L0.0,400.0" fill="rgb(255,150,120)" stroke-width="0.2" stroke="rgb(85,50,40)" />

<path d="M-142.0,18.0 L-138.0,13.0 L-130.0,7.0 L-120.0,4.0 L-110.0,2.0 L-97.0,2.0 L-84.0,7.0 L-81.0,6.0 L-82.0,-2.0 L-82.0,-9.0 L-80.0,-17.0 L-80.0,-32.0 L-82.0,-38.0 L-87.0,-44.0 L-92.0,-50.0 L-91.0,-73.0 L-87.0,-80.0 L-83.0,-80.0 L-79.0,-81.0 L-75.0,-78.0 L-77.0,-73.0 L-82.0,-71.0 L-81.0,-56.0 L-78.0,-52.0 L-75.0,-52.0 L-74.0,-56.0 L-73.0,-66.0 L-69.0,-70.0 L-66.0,-71.0 L-58.0,-71.0 L-58.0,-67.0 L-61.0,-65.0 L-65.0,-61.0 L-65.0,-47.0 L-62.0,-44.0 L-60.0,-41.0 L-57.0,-38.0 L-55.0,-35.0 L-53.0,-32.0 L-51.0,-27.0 L-49.0,-22.0 L-48.0,-21.0 L-45.0,-22.0 L-42.0,-24.0 L-38.0,-26.0 L-36.0,-24.0 L-34.0,-23.0 L-32.0,-23.0 L-30.0,-23.0 L-25.0,-25.0 L-19.0,-28.0 L-12.0,-29.0 L-1.0,-28.0 L4.0,-26.0 L8.0,-26.0 L8.0,-29.0 L7.0,-31.0 L8.0,-54.0 L6.0,-61.0 L4.0,-72.0 L7.0,-74.0 L8.0,-79.0 L10.0,-86.0 L15.0,-89.0 L22.0,-89.0 L27.0,-87.0 L26.0,-83.0 L23.0,-80.0 L19.0,-79.0 L17.0,-76.0 L16.0,-70.0 L17.0,-64.0 L19.0,-64.0 L24.0,-77.0 L25.0,-77.0 L39.0,-78.0 L38.0,-70.0 L34.0,-69.0 L31.0,-67.0 L30.0,-63.0 L30.0,-53.0 L32.0,-39.0 L38.0,-22.0 L41.0,-18.0 L45.0,-14.0 L47.0,-9.0 L48.0,-6.0 L50.0,-2.0 L51.0,3.0 L56.0,10.0 L60.0,17.0 L64.0,23.0 L66.0,30.0 L69.0,35.0 L73.0,36.0 L78.0,41.0 L82.0,43.0 L85.0,44.0 L87.0,46.0 L90.0,49.0 L92.0,52.0 L94.0,55.0 L95.0,59.0 L93.0,64.0 L87.0,63.0 L80.0,63.0 L76.0,63.0 L73.0,65.0 L72.0,67.0 L70.0,69.0 L62.0,68.0 L56.0,68.0 L51.0,67.0 L46.0,64.0 L42.0,62.0 L41.0,60.0 L39.0,55.0 L36.0,51.0 L32.0,49.0 L28.0,46.0 L24.0,41.0 L20.0,38.0 L16.0,34.0 L11.0,33.0 L6.0,33.0 L3.0,31.0 L-3.0,29.0 L-8.0,28.0 L-17.0,29.0 L-28.0,29.0 L-35.0,29.0 L-46.0,29.0 L-58.0,28.0 L-67.0,24.0 L-75.0,22.0 L-86.0,19.0 L-94.0,17.0 L-102.0,16.0 L-109.0,15.0 L-115.0,14.0 L-122.0,14.0 L-127.0,15.0 L-131.0,16.0 L-135.0,17.0 L-139.0,19.0 L-142.0,18.0" fill="rgb(200,200,200)" stroke-width="0.2" stroke="rgb(66,66,66)" />

<path d="M-20.0,-20.0 L20.0,-20.0 L20.0,20.0 L-20.0,20.0 L-20.0,-20.0" fill="rgb(255,255,0)" stroke-width="0.2" stroke="rgb(85,85,0)" />

<path d="M4.57998,4.03402 L4.06435,4.06435 L3.51839,4.21601 L3.09376,4.42832 L2.60846,4.57998 L2.09284,4.7013 L1.51655,4.82263 L0.909929,4.94395 L0.242648,5.06527 L-0.30331,5.0956 L-1.15258,5.12594 L-1.72887,5.12594 L-2.48714,5.12594 L-2.85111,5.03494 L-3.36674,5.30792 L-3.70038,5.52024 L-4.15534,5.9752 L-4.7013,6.27851 L-5.0956,6.61215 L-5.73255,6.67281 L-6.55149,6.73348 L-6.88513,6.61215 L-7.46142,6.36951 L-7.88605,6.18752 L-8.25003,5.91454 L-8.64433,5.61123 L-8.88698,5.30792 L-9.06896,5.00461 L-9.25095,4.88329 L-9.94856,4.73163 L-10.6462,4.64064 L-11.1011,4.54965 L-11.3741,4.42832 L-11.5561,4.21601 L-11.0101,4.21601 L-10.1305,3.94303 L-9.61492,3.73071 L-9.15996,3.4274 L-8.73532,3.00277 L-8.34102,2.6388 L-7.97705,2.36582 L-7.61308,2.03218 L-7.18844,1.45589 L-6.79414,1.12225 L-6.64248,0.788605 L-6.36951,0.242648 L-6.24818,-0.212317 L-6.00553,-0.515627 L-5.73255,-0.818936 L-5.24726,-1.2739 L-4.7923,-1.60754 L-4.42832,-2.00184 L-3.67005,-2.21416 L-3.18475,-2.39615 L-2.5478,-2.69946 L-1.91085,-2.79045 L-1.06158,-2.88144 L-0.333641,-2.88144 L0.242648,-2.85111 L0.94026,-2.82078 L1.2739,-2.85111 L1.42556,-3.0331 L1.42556,-3.30608 L1.33456,-3.57905 L1.15258,-4.00369 L1.03125,-4.57998 L0.849267,-5.15627 L0.63695,-5.5809 L0.30331,-5.91454 L0.060662,-6.15719 L-0.333641,-6.27851 L-0.697612,-6.27851 L-1.15258,-6.36951 L-1.57721,-6.39984 L-2.09284,-6.52116 L-2.36582,-6.79414 L-2.48714,-7.06712 L-2.18383,-6.97612 L-1.85019,-6.79414 L-1.42556,-6.76381 L-1.15258,-6.79414 L-1.36489,-6.88513 L-1.69853,-6.97612 L-1.97151,-7.12778 L-2.12317,-7.37043 L-2.27482,-7.64341 L-2.39615,-7.91639 L-2.36582,-8.21969 L-2.03218,-7.85572 L-1.81986,-7.7344 L-1.57721,-7.67374 L-1.36489,-7.49175 L-1.21324,-7.40076 L-0.849267,-7.2491 L-0.60662,-7.12778 L-0.242648,-6.91546 L0.030331,-6.70315 L0.363972,-6.4605 L0.242648,-6.61215 L0.152837,-6.72007 L-0.092855,-6.88818 L-0.506653,-7.15974 L-0.765276,-7.31491 L-1.01097,-7.41836 L-1.16614,-7.5606 L-1.32132,-7.71577 L-1.45063,-7.81922 L-1.50235,-8.06492 L-1.50235,-8.29768 L-1.46356,-8.53044 L-1.38597,-8.29768 L-1.28252,-8.05199 L-1.14028,-7.87095 L-0.985106,-7.84509 L-0.817001,-7.84509 L-0.623033,-7.70284 L-0.390272,-7.52181 L-0.105787,-7.31491 L0.178699,-7.06922 L0.489047,-6.84939 L0.670083,-6.66835 L0.928707,-6.47438 L1.16147,-6.33214 L1.47182,-6.13817 L1.82096,-5.91834 L2.04079,-5.84076 L2.15717,-5.71144 L2.18303,-5.45282 L2.06665,-5.28472 L1.87268,-5.3623 L1.49768,-5.63386 L1.22612,-5.81489 L1.03216,-5.91834 L0.876982,-5.95714 L0.954569,-5.80196 L1.00629,-5.60799 L1.16147,-5.29765 L1.3425,-4.9873 L1.45888,-4.65109 L1.47182,-4.4054 L1.73044,-3.95281 L1.84682,-3.6166 L1.98906,-3.30625 L2.14424,-2.95711 L2.26062,-2.75021 L2.42872,-2.59503 L2.63562,-2.50452 L2.98476,-2.51745 L3.12701,-2.71141 L3.06235,-3.09935 L2.9589,-3.4097 L2.86838,-3.75884 L2.79079,-4.12091 L2.70028,-4.43126 L2.55803,-4.75454 L2.48045,-5.03902 L2.3382,-5.37523 L2.29941,-5.59506 L2.23475,-5.90541 L2.11837,-6.21576 L1.7951,-6.65542 L1.39423,-7.05628 L1.09681,-7.26318 L0.838188,-7.37956 L0.41146,-7.49594 L-0.002337,-7.62526 L-0.416135,-7.7675 L-0.687689,-8.05199 L-0.907519,-8.40113 L-0.70062,-8.19423 L-0.312685,-8.05199 L-0.015268,-7.89681 L0.217493,-7.89681 L0.243355,-7.90974 L0.023525,-8.1425 L-0.157511,-8.25888 L-0.403203,-8.43992 L-0.648896,-8.75027 L-0.778207,-8.90544 L-0.881657,-9.18993 L-0.80407,-9.60372 L-0.597171,-9.177 L-0.14458,-8.9701 L0.269217,-8.62096 L0.695946,-8.28475 L1.13561,-8.00026 L1.52354,-7.62526 L1.82096,-7.26318 L1.95027,-7.09508 L1.9632,-7.15974 L1.66578,-7.58646 L1.45888,-7.84509 L1.13561,-8.20716 L0.760601,-8.65975 L0.450253,-8.99596 L0.269217,-9.28045 L0.126974,-9.65545 L0.19163,-10.2761 L0.333873,-9.84942 L0.63129,-9.68131 L0.980431,-9.26751 L1.26492,-8.72441 L1.60113,-8.31061 L1.98906,-7.7675 L2.36407,-7.34077 L2.79079,-7.00456 L3.13994,-6.7718 L3.68304,-6.46145 L4.14857,-6.33214 L4.7434,-6.09938 L5.19599,-6.13817 L4.85978,-5.87955 L4.29081,-5.76317 L3.77356,-5.81489 L3.34683,-6.07352 L2.77786,-6.47438 L2.41579,-6.60369 L2.41579,-6.28042 L2.59683,-5.84076 L2.79079,-5.42696 L2.99769,-4.90971 L3.25632,-4.30195 L3.50201,-3.52608 L3.83822,-2.63383 L4.07098,-2.40107 L4.39426,-2.28469 L4.79512,-2.23296 L4.54943,-2.02606 L4.49771,-1.6252 L4.54943,-1.50882 L4.91151,-1.50882 L5.54513,-1.45709 L6.12704,-1.39244 L6.85118,-1.32778 L7.44601,-1.14674 L7.85981,-0.78467 L7.79516,-0.409667 L7.49774,-0.151043 L4.57998,4.03402" fill="rgb(0,0,0)" stroke-width="0.2" stroke="rgb(0,0,0)" />

<path d="M0.0,-350.0 L200.0,-100.0 L-200.0,-100.0 L0.0,-350.0" fill="rgb(255,250,220)" stroke-width="0.2" stroke="rgb(85,83,73)" />

<path d="M-50.728,-242.133 L-50.728,-242.412 L-50.448,-242.691 L-50.448,-242.971 L-50.169,-243.25 L-49.889,-243.53 L-49.61,-243.809 L-49.33,-244.089 L-48.772,-244.089 L-48.492,-244.368 L-40.389,-244.368 L-40.109,-244.647 L-39.551,-244.647 L-39.271,-244.927 L-38.992,-245.206 L-38.712,-245.486 L-38.433,-245.765 L-38.154,-246.044 L-37.874,-246.324 L-37.874,-246.883 L-37.595,-247.162 L-37.595,-248.0 L-37.874,-248.28 L-38.154,-248.559 L-38.433,-248.839 L-38.712,-249.118 L-38.992,-249.118 L-39.271,-249.398 L-39.83,-249.398 L-40.109,-249.677 L-40.668,-249.677 L-40.948,-249.956 L-41.507,-249.956 L-41.786,-250.236 L-42.065,-250.236 L-42.345,-250.515 L-42.624,-250.795 L-42.904,-251.074 L-42.904,-251.354 L-43.183,-251.633 L-43.183,-252.192 L-42.904,-252.471 L-42.904,-252.751 L-42.624,-253.03 L-42.345,-253.309 L-40.389,-253.309 L-40.109,-253.03 L-39.83,-252.751 L-39.551,-252.751 L-39.271,-252.471 L-39.271,-252.192 L-38.992,-251.912 L-38.712,-251.633 L-38.433,-251.354 L-38.433,-251.074 L-38.154,-250.795 L-37.874,-250.515 L-37.595,-250.236 L-37.595,-249.956 L-37.315,-249.677 L-37.036,-249.398 L-36.756,-249.118 L-36.477,-248.839 L-36.198,-248.559 L-35.918,-248.28 L-35.639,-248.0 L-35.359,-248.0 L-35.08,-247.721 L-34.521,-247.721 L-34.242,-248.0 L-33.962,-248.0 L-33.683,-248.28 L-33.403,-248.559 L-33.124,-248.839 L-32.844,-249.118 L-32.565,-249.398 L-32.286,-249.677 L-32.006,-249.956 L-31.727,-250.236 L-31.447,-250.515 L-31.447,-250.795 L-31.168,-251.074 L-30.888,-251.354 L-30.609,-251.633 L-30.33,-251.912 L-30.05,-251.912 L-29.771,-252.192 L-29.491,-252.471 L-29.212,-252.751 L-28.933,-252.751 L-28.653,-253.03 L-28.374,-253.03 L-28.094,-253.309 L-27.815,-253.589 L-27.535,-253.589 L-27.256,-253.868 L-26.977,-254.148 L-26.697,-254.148 L-26.418,-254.427 L-26.138,-254.707 L-25.859,-254.707 L-25.579,-254.986 L-25.3,-255.265 L-25.021,-255.545 L-24.741,-255.824 L-24.462,-255.824 L-24.182,-256.104 L-23.903,-256.383 L-23.623,-256.663 L-23.344,-256.942 L-23.065,-257.221 L-23.065,-257.501 L-22.785,-257.78 L-22.506,-258.06 L-22.506,-260.295 L-22.226,-260.575 L-22.226,-265.045 L-21.947,-265.325 L-21.947,-268.957 L-21.668,-269.237 L-21.668,-271.472 L-21.388,-271.751 L-21.388,-273.428 L-21.109,-273.707 L-21.109,-274.825 L-20.829,-275.105 L-20.829,-275.663 L-20.55,-275.943 L-20.55,-276.502 L-20.27,-276.781 L-20.27,-277.34 L-19.991,-277.619 L-19.991,-277.899 L-19.712,-278.178 L-19.712,-278.458 L-19.432,-278.737 L-19.432,-279.016 L-19.153,-279.296 L-19.153,-279.575 L-18.873,-279.855 L-18.873,-280.134 L-18.594,-280.414 L-18.594,-280.693 L-18.314,-280.972 L-18.035,-281.252 L-18.035,-281.531 L-17.756,-281.811 L-17.756,-282.09 L-17.476,-282.37 L-17.197,-282.649 L-17.197,-282.928 L-16.917,-283.208 L-16.638,-283.487 L-16.358,-283.767 L-16.358,-284.046 L-16.079,-284.326 L-15.8,-284.605 L-15.52,-284.884 L-15.241,-285.164 L-15.241,-285.443 L-14.961,-285.723 L-14.682,-286.002 L-14.402,-286.281 L-14.123,-286.561 L-13.844,-286.84 L-13.564,-287.12 L-13.285,-287.399 L-13.005,-287.679 L-13.005,-287.958 L-12.726,-288.237 L-12.447,-288.517 L-12.167,-288.796 L-11.888,-289.076 L-11.608,-289.355 L-11.329,-289.635 L-11.049,-289.635 L-10.77,-289.914 L-10.491,-290.193 L-10.211,-290.473 L-9.932,-290.752 L-9.652,-291.032 L-9.373,-291.311 L-9.093,-291.591 L-8.814,-291.87 L-8.535,-292.149 L-8.255,-292.149 L-7.976,-292.429 L-7.696,-292.708 L-7.417,-292.988 L-7.137,-293.267 L-6.858,-293.547 L-6.579,-293.826 L-6.299,-293.826 L-6.02,-294.105 L-5.74,-294.385 L-5.461,-294.664 L-5.181,-294.944 L-4.902,-295.223 L-4.623,-295.502 L-4.343,-295.502 L-4.064,-295.782 L-3.784,-296.061 L-3.505,-296.341 L-3.226,-296.62 L-2.946,-296.9 L-2.667,-297.179 L-2.387,-297.458 L-2.108,-297.738 L-1.828,-298.017 L-1.549,-298.297 L-1.27,-298.576 L-0.99,-298.856 L-0.711,-299.135 L-0.431,-299.414 L-0.152,-299.694 L0.128,-299.973 L0.407,-300.253 L0.686,-300.532 L0.966,-300.812 L0.966,-301.091 L1.245,-301.37 L1.525,-301.65 L1.525,-301.929 L1.804,-302.209 L1.804,-302.488 L2.084,-302.767 L2.084,-303.047 L2.363,-303.326 L2.363,-303.606 L2.642,-303.885 L2.642,-304.165 L2.922,-304.444 L2.922,-305.282 L3.201,-305.562 L3.201,-306.121 L3.481,-306.4 L3.481,-306.959 L3.76,-307.238 L3.76,-308.077 L4.039,-308.356 L4.039,-309.474 L4.319,-309.753 L4.319,-312.268 L4.598,-312.547 L4.598,-315.342 L4.319,-315.621 L4.319,-318.974 L4.039,-319.254 L4.039,-321.209 L3.76,-321.489 L3.76,-322.886 L3.481,-323.165 L3.481,-324.563 L3.201,-324.842 L3.201,-326.239 L2.922,-326.519 L2.922,-327.636 L2.642,-327.916 L2.642,-329.313 L2.363,-329.592 L2.363,-330.71 L2.084,-330.989 L2.084,-332.107 L1.804,-332.386 L1.804,-333.504 L1.525,-333.784 L1.525,-334.901 L1.245,-335.181 L1.245,-338.254 L1.525,-338.534 L1.804,-338.534 L1.804,-338.254 L2.084,-337.975 L2.084,-337.416 L2.363,-337.137 L2.363,-336.857 L2.642,-336.578 L2.642,-336.019 L2.922,-335.74 L2.922,-335.181 L3.201,-334.901 L3.201,-334.063 L3.481,-333.784 L3.481,-333.225 L3.76,-332.945 L3.76,-332.107 L4.039,-331.828 L4.039,-331.269 L4.319,-330.989 L4.319,-330.43 L4.598,-330.151 L4.598,-329.313 L4.878,-329.033 L4.878,-328.474 L5.157,-328.195 L5.157,-327.357 L5.437,-327.077 L5.437,-326.519 L5.716,-326.239 L5.716,-325.68 L5.995,-325.401 L5.995,-324.563 L6.275,-324.283 L6.275,-323.724 L6.554,-323.445 L6.554,-322.607 L6.834,-322.327 L6.834,-321.768 L7.113,-321.489 L7.113,-320.651 L7.393,-320.371 L7.393,-319.533 L7.672,-319.254 L7.672,-318.415 L7.951,-318.136 L7.951,-316.739 L8.231,-316.459 L8.231,-309.194 L7.951,-308.915 L7.951,-307.518 L7.672,-307.238 L7.672,-306.121 L7.393,-305.841 L7.393,-304.723 L7.113,-304.444 L7.113,-303.606 L6.834,-303.326 L6.834,-302.767 L6.554,-302.488 L6.554,-301.929 L6.275,-301.65 L6.275,-301.091 L5.995,-300.812 L5.995,-300.532 L5.716,-300.253 L5.716,-299.973 L5.437,-299.694 L5.437,-299.414 L5.157,-299.135 L5.157,-298.856 L4.878,-298.576 L4.878,-298.297 L4.598,-298.017 L4.319,-297.738 L4.319,-297.458 L4.039,-297.179 L4.039,-296.9 L3.76,-296.62 L3.481,-296.341 L3.481,-296.061 L3.201,-295.782 L2.922,-295.502 L2.642,-295.223 L2.363,-294.944 L2.363,-294.664 L2.084,-294.385 L1.804,-294.105 L1.525,-293.826 L1.245,-293.547 L0.966,-293.267 L0.966,-292.988 L0.686,-292.708 L0.407,-292.429 L0.128,-292.149 L-0.152,-291.87 L-0.431,-291.591 L-0.711,-291.591 L-0.99,-291.311 L-1.27,-291.032 L-1.549,-290.752 L-1.828,-290.473 L-2.108,-290.193 L-2.387,-289.914 L-2.667,-289.914 L-2.946,-289.635 L-3.226,-289.355 L-3.505,-289.076 L-3.784,-288.796 L-4.064,-288.796 L-4.343,-288.517 L-4.623,-288.237 L-4.902,-287.958 L-5.181,-287.679 L-5.461,-287.679 L-5.74,-287.399 L-6.02,-287.12 L-6.299,-286.84 L-6.579,-286.561 L-6.858,-286.281 L-7.137,-286.002 L-7.417,-285.723 L-7.696,-285.443 L-7.976,-285.164 L-8.255,-284.884 L-8.535,-284.605 L-8.535,-284.326 L-8.814,-284.046 L-9.093,-283.767 L-9.373,-283.487 L-9.373,-283.208 L-9.652,-282.928 L-9.932,-282.649 L-9.932,-282.37 L-10.211,-282.09 L-10.491,-281.811 L-10.491,-281.531 L-10.77,-281.252 L-10.77,-280.972 L-11.049,-280.693 L-11.049,-280.414 L-11.329,-280.134 L-11.329,-279.855 L-11.608,-279.575 L-11.608,-279.296 L-11.888,-279.016 L-11.888,-278.737 L-12.167,-278.458 L-12.167,-277.899 L-12.447,-277.619 L-12.447,-277.061 L-12.726,-276.781 L-12.726,-275.943 L-13.005,-275.663 L-13.005,-274.546 L-13.285,-274.266 L-13.285,-270.913 L-13.564,-270.634 L-13.564,-267.281 L-13.285,-267.001 L-13.285,-263.089 L-13.005,-262.81 L-13.005,-261.133 L-12.726,-260.854 L-12.726,-259.736 L-12.447,-259.457 L-12.447,-257.78 L-12.167,-257.501 L-12.167,-254.427 L-11.888,-254.148 L-11.888,-253.589 L-11.608,-253.309 L-11.608,-252.751 L-11.329,-252.471 L-11.329,-252.192 L-11.049,-251.912 L-11.049,-251.633 L-10.77,-251.354 L-10.77,-251.074 L-10.491,-250.795 L-10.491,-250.515 L-10.211,-250.236 L-9.932,-249.956 L-9.652,-249.677 L-9.652,-249.398 L-9.373,-249.118 L-9.093,-248.839 L-8.814,-248.559 L-8.535,-248.28 L-8.255,-248.0 L-7.976,-248.0 L-7.696,-247.721 L-7.417,-247.442 L-7.137,-247.162 L-6.579,-247.162 L-6.299,-246.883 L-6.02,-246.883 L-5.74,-246.603 L-4.623,-246.603 L-4.343,-246.324 L-3.505,-246.324 L-3.226,-246.044 L-2.108,-246.044 L-1.828,-245.765 L2.084,-245.765 L2.363,-246.044 L2.642,-246.044 L2.922,-246.324 L3.201,-246.324 L3.481,-246.603 L3.76,-246.603 L4.039,-246.883 L4.319,-247.162 L4.598,-247.442 L4.598,-247.721 L4.878,-248.0 L4.878,-248.28 L5.157,-248.559 L5.157,-251.633 L5.437,-251.912 L5.437,-252.471 L5.716,-252.751 L5.995,-253.03 L6.275,-253.309 L7.672,-253.309 L7.951,-253.03 L8.231,-252.751 L8.231,-252.471 L8.51,-252.192 L8.51,-249.677 L8.231,-249.398 L8.231,-249.118 L7.951,-248.839 L7.951,-248.559 L7.672,-248.28 L7.393,-248.0 L7.393,-247.721 L7.113,-247.442 L6.834,-247.162 L6.554,-246.883 L6.275,-246.603 L5.995,-246.324 L5.716,-246.044 L5.437,-245.765 L5.157,-245.486 L4.878,-245.206 L4.598,-244.927 L4.319,-244.927 L4.039,-244.647 L3.76,-244.647 L3.481,-244.368 L3.201,-244.368 L2.922,-244.089 L2.922,-243.809 L3.201,-243.53 L3.481,-243.25 L3.76,-243.25 L4.039,-242.971 L5.157,-242.971 L5.437,-243.25 L5.716,-243.25 L5.995,-243.53 L6.275,-243.53 L6.554,-243.809 L6.834,-244.089 L7.113,-244.089 L7.393,-244.368 L7.672,-244.368 L7.951,-244.647 L8.231,-244.927 L8.51,-244.927 L8.79,-245.206 L9.069,-245.206 L9.349,-245.486 L9.628,-245.486 L9.907,-245.765 L10.187,-245.765 L10.466,-246.044 L11.025,-246.044 L11.305,-246.324 L11.863,-246.324 L12.143,-246.603 L13.54,-246.603 L13.819,-246.883 L14.099,-246.883 L14.378,-246.603 L15.496,-246.603 L15.775,-246.324 L16.334,-246.324 L16.614,-246.044 L16.893,-246.044 L17.172,-245.765 L17.452,-245.486 L17.731,-245.206 L18.011,-244.927 L18.011,-244.368 L17.731,-244.089 L17.731,-243.809 L17.452,-243.53 L17.172,-243.53 L16.893,-243.25 L16.334,-243.25 L16.055,-242.971 L9.628,-242.971 L9.349,-242.691 L7.951,-242.691 L7.672,-242.412 L7.113,-242.412 L6.834,-242.133 L6.275,-242.133 L5.995,-241.853 L5.716,-241.574 L5.437,-241.574 L5.157,-241.294 L4.878,-241.015 L4.598,-240.735 L4.878,-240.456 L8.51,-240.456 L8.79,-240.177 L11.305,-240.177 L11.584,-239.897 L12.702,-239.897 L12.981,-239.618 L13.819,-239.618 L14.099,-239.338 L14.378,-239.338 L14.378,-239.059 L14.378,-238.779 L14.099,-238.5 L13.819,-238.221 L13.54,-237.941 L13.819,-237.941 L13.26,-237.662 L11.305,-237.662 L11.025,-237.941 L10.187,-237.941 L9.907,-238.221 L9.349,-238.221 L9.069,-238.5 L8.51,-238.5 L8.231,-238.779 L7.951,-238.779 L7.672,-239.059 L7.113,-239.059 L6.834,-239.338 L6.275,-239.338 L5.995,-239.618 L4.878,-239.618 L4.598,-239.897 L4.039,-239.897 L3.76,-239.618 L4.039,-239.338 L4.039,-239.059 L4.319,-238.779 L4.319,-238.5 L4.598,-238.221 L4.878,-237.941 L5.157,-237.662 L5.157,-237.382 L5.437,-237.103 L5.716,-236.823 L5.995,-236.544 L6.275,-236.265 L6.554,-235.985 L6.834,-235.706 L6.834,-235.426 L7.113,-235.147 L7.113,-234.588 L7.393,-234.309 L7.393,-234.029 L7.113,-233.75 L7.113,-233.191 L6.834,-232.912 L6.554,-232.632 L5.716,-232.632 L5.437,-232.912 L5.157,-232.912 L4.878,-233.191 L4.598,-233.47 L4.598,-233.75 L4.319,-234.029 L4.039,-234.309 L4.039,-234.868 L3.76,-235.147 L3.76,-235.706 L3.481,-235.985 L3.481,-236.265 L3.201,-236.544 L3.201,-237.103 L2.922,-237.382 L2.642,-237.662 L2.642,-237.941 L2.363,-238.221 L2.084,-238.5 L1.804,-238.779 L1.525,-238.779 L1.245,-239.059 L0.966,-238.779 L0.966,-235.706 L0.686,-235.426 L0.686,-235.147 L0.407,-234.868 L0.128,-234.588 L-0.431,-234.588 L-0.711,-234.309 L-1.27,-234.309 L-1.549,-234.588 L-1.549,-235.706 L-1.27,-235.985 L-1.27,-236.823 L-0.99,-237.103 L-0.99,-237.662 L-0.711,-237.941 L-0.711,-238.5 L-0.431,-238.779 L-0.431,-240.735 L-0.711,-241.015 L-0.99,-241.294 L-0.99,-241.574 L-1.27,-241.853 L-1.549,-242.133 L-1.828,-242.412 L-2.108,-242.412 L-2.387,-242.691 L-2.667,-242.971 L-2.946,-242.971 L-3.226,-243.25 L-3.784,-243.25 L-4.064,-243.53 L-4.343,-243.53 L-4.623,-243.809 L-5.74,-243.809 L-6.02,-244.089 L-9.652,-244.089 L-9.932,-243.809 L-10.491,-243.809 L-10.77,-243.53 L-11.329,-243.53 L-11.608,-243.25 L-11.888,-242.971 L-12.167,-242.971 L-12.447,-242.691 L-12.726,-242.412 L-13.005,-242.133 L-13.285,-241.853 L-13.564,-241.574 L-13.564,-241.294 L-13.844,-241.015 L-13.844,-240.456 L-14.123,-240.177 L-14.123,-237.662 L-13.844,-237.382 L-13.844,-236.823 L-13.564,-236.544 L-13.564,-235.985 L-13.285,-235.706 L-13.285,-235.426 L-13.005,-235.147 L-13.005,-234.868 L-12.726,-234.588 L-12.447,-234.309 L-12.447,-234.029 L-12.167,-233.75 L-11.888,-233.47 L-11.888,-233.191 L-11.608,-232.912 L-11.329,-232.632 L-11.049,-232.353 L-10.77,-232.073 L-10.77,-231.794 L-10.491,-231.514 L-10.211,-231.235 L-9.932,-230.956 L-9.932,-230.676 L-9.652,-230.397 L-9.373,-230.117 L-9.093,-229.838 L-8.814,-229.558 L-8.814,-229.279 L-8.535,-229.0 L-8.255,-228.72 L-8.255,-228.441 L-7.976,-228.161 L-7.696,-227.882 L-7.696,-227.603 L-7.417,-227.323 L-7.417,-227.044 L-7.137,-226.764 L-7.137,-225.926 L-6.858,-225.647 L-6.858,-220.896 L-7.137,-220.617 L-7.137,-219.779 L-6.858,-219.499 L-6.858,-219.22 L-6.579,-218.94 L-6.299,-218.661 L-6.02,-218.661 L-5.74,-218.382 L-5.461,-218.661 L-5.181,-218.661 L-4.902,-218.94 L-4.623,-218.94 L-4.343,-219.22 L-4.064,-219.499 L-3.784,-219.779 L-3.784,-220.058 L-3.505,-220.337 L-3.226,-220.617 L-2.946,-220.896 L-2.667,-221.176 L-2.387,-221.455 L-2.108,-221.735 L-1.828,-221.735 L-1.549,-222.014 L1.245,-222.014 L1.525,-221.735 L2.084,-221.735 L2.363,-221.455 L2.642,-221.455 L2.922,-221.176 L3.201,-221.176 L3.481,-220.896 L3.76,-220.896 L4.039,-220.617 L4.319,-220.617 L4.598,-220.337 L4.878,-220.337 L5.157,-220.058 L5.437,-219.779 L5.716,-219.779 L5.995,-219.499 L6.275,-219.499 L6.554,-219.22 L6.834,-219.22 L7.113,-218.94 L7.393,-218.94 L7.672,-218.661 L8.231,-218.661 L8.51,-218.382 L10.187,-218.382 L10.466,-218.661 L11.584,-218.661 L11.863,-218.94 L12.981,-218.94 L13.26,-218.661 L14.099,-218.661 L14.378,-218.382 L14.658,-218.102 L14.658,-217.543 L14.378,-217.264 L14.099,-217.264 L13.819,-216.984 L12.702,-216.984 L12.422,-217.264 L11.584,-217.264 L11.305,-217.543 L9.907,-217.543 L9.628,-217.264 L9.628,-216.984 L9.907,-216.705 L10.187,-216.705 L10.466,-216.426 L10.746,-216.426 L11.025,-216.146 L17.731,-216.146 L18.011,-215.867 L18.29,-215.867 L18.57,-215.587 L18.57,-215.308 L18.849,-215.028 L18.849,-214.47 L18.57,-214.19 L18.29,-213.911 L17.731,-213.911 L17.452,-213.631 L16.893,-213.631 L16.614,-213.911 L16.334,-213.911 L16.055,-214.19 L15.496,-214.19 L15.216,-214.47 L14.658,-214.47 L14.378,-214.749 L13.26,-214.749 L12.981,-215.028 L11.863,-215.028 L11.584,-215.308 L9.628,-215.308 L9.349,-215.587 L9.069,-215.308 L9.069,-214.749 L9.349,-214.47 L9.628,-214.19 L9.907,-213.911 L10.187,-213.631 L10.466,-213.352 L10.746,-213.352 L11.025,-213.072 L11.305,-212.793 L11.584,-212.793 L11.863,-212.514 L12.143,-212.514 L12.422,-212.234 L12.702,-212.234 L12.981,-211.955 L13.26,-211.955 L13.54,-211.675 L13.819,-211.396 L14.099,-211.396 L14.378,-211.116 L14.658,-210.837 L14.937,-210.837 L15.216,-210.558 L15.496,-210.278 L15.496,-209.999 L15.775,-209.719 L15.775,-208.881 L15.496,-208.602 L15.216,-208.322 L13.819,-208.322 L13.54,-208.602 L13.26,-208.881 L12.981,-209.161 L12.702,-209.44 L12.422,-209.719 L12.143,-209.999 L11.863,-209.999 L11.584,-210.278 L11.305,-210.558 L11.025,-210.837 L10.746,-211.116 L10.466,-211.396 L10.187,-211.675 L9.907,-211.955 L9.628,-211.955 L9.349,-212.234 L9.069,-212.514 L8.79,-212.234 L9.069,-211.955 L9.069,-211.675 L9.349,-211.396 L9.628,-211.116 L9.628,-210.837 L9.907,-210.558 L10.187,-210.278 L10.187,-209.999 L10.466,-209.719 L10.466,-209.161 L10.746,-208.881 L10.466,-208.602 L10.187,-208.322 L10.466,-208.322 L9.907,-208.043 L9.069,-208.043 L8.79,-208.322 L8.79,-208.602 L8.51,-208.881 L8.51,-209.719 L8.231,-209.999 L8.231,-210.558 L7.951,-210.837 L7.951,-211.675 L7.672,-211.955 L7.672,-212.234 L7.393,-212.514 L7.113,-212.234 L7.113,-211.116 L6.834,-210.837 L6.834,-210.278 L6.554,-209.999 L6.554,-209.719 L6.275,-209.44 L5.716,-209.44 L5.437,-209.719 L5.157,-209.999 L5.157,-210.278 L4.878,-210.558 L4.878,-211.675 L5.157,-211.955 L5.157,-212.234 L5.437,-212.514 L5.437,-212.793 L5.716,-213.072 L5.716,-213.352 L5.995,-213.631 L5.995,-214.19 L6.275,-214.47 L6.275,-215.028 L5.995,-215.308 L5.995,-215.587 L5.716,-215.867 L5.437,-216.146 L5.157,-216.426 L5.157,-216.705 L4.878,-216.984 L4.598,-216.984 L4.319,-217.264 L4.039,-217.543 L3.76,-217.823 L3.481,-217.823 L3.201,-218.102 L2.642,-218.102 L2.363,-218.382 L0.686,-218.382 L0.407,-218.102 L-0.152,-218.102 L-0.431,-217.823 L-0.99,-217.823 L-1.27,-217.543 L-1.549,-217.264 L-1.828,-217.264 L-2.108,-216.984 L-2.387,-216.705 L-2.667,-216.426 L-2.946,-216.146 L-3.226,-216.146 L-3.505,-215.867 L-3.784,-215.587 L-3.784,-215.308 L-4.064,-215.028 L-4.343,-214.749 L-4.623,-214.47 L-4.623,-214.19 L-4.902,-213.911 L-5.181,-213.631 L-5.181,-213.352 L-5.461,-213.072 L-5.461,-212.793 L-5.74,-212.514 L-6.02,-212.234 L-6.02,-211.675 L-6.299,-211.396 L-6.299,-210.837 L-6.579,-210.558 L-6.299,-210.278 L-6.299,-209.719 L-6.02,-209.44 L-5.74,-209.161 L-5.461,-208.881 L-5.181,-208.602 L-4.902,-208.322 L-4.623,-208.322 L-4.343,-208.043 L-4.064,-207.763 L-3.784,-207.484 L-3.505,-207.484 L-3.226,-207.205 L-2.946,-206.925 L-2.667,-206.646 L-2.387,-206.366 L-2.108,-206.087 L-1.828,-205.807 L-1.549,-205.528 L-1.27,-205.249 L-0.99,-204.969 L-0.99,-204.69 L-0.711,-204.41 L-0.431,-204.131 L-0.431,-203.851 L-0.152,-203.572 L-0.152,-203.293 L0.128,-203.013 L0.128,-202.734 L0.407,-202.454 L0.407,-202.175 L0.686,-201.896 L0.686,-201.616 L0.966,-201.337 L0.966,-200.778 L1.245,-200.498 L1.245,-199.66 L1.525,-199.381 L1.525,-197.704 L1.804,-197.425 L1.804,-195.189 L1.525,-194.91 L1.525,-192.395 L1.245,-192.116 L1.245,-190.719 L0.966,-190.439 L0.966,-188.763 L0.686,-188.483 L0.686,-187.086 L0.407,-186.807 L0.407,-185.689 L0.128,-185.41 L0.128,-184.851 L-0.152,-184.571 L-0.152,-184.292 L-0.431,-184.012 L-0.431,-183.733 L-0.711,-183.454 L-0.711,-183.174 L-0.99,-182.895 L-1.27,-182.615 L-1.549,-182.336 L-1.828,-182.056 L-2.108,-182.056 L-2.387,-181.777 L-2.667,-181.777 L-2.946,-181.498 L-3.784,-181.498 L-4.064,-181.218 L-5.181,-181.218 L-5.461,-181.498 L-6.299,-181.498 L-6.579,-181.777 L-6.858,-181.777 L-7.137,-182.056 L-7.417,-182.056 L-7.696,-182.336 L-7.976,-182.615 L-8.255,-182.615 L-8.535,-182.895 L-8.814,-183.174 L-9.093,-183.454 L-9.373,-183.454 L-9.652,-183.733 L-9.932,-184.012 L-10.211,-184.292 L-10.491,-184.571 L-10.77,-184.851 L-11.049,-185.13 L-11.329,-185.41 L-11.608,-185.689 L-11.888,-185.968 L-11.888,-186.248 L-12.167,-186.527 L-12.447,-186.807 L-12.726,-187.086 L-13.005,-187.365 L-13.285,-187.645 L-13.564,-187.924 L-13.564,-188.204 L-13.844,-188.483 L-14.123,-188.763 L-14.402,-189.042 L-14.682,-189.321 L-14.682,-189.601 L-14.961,-189.88 L-15.241,-190.16 L-15.241,-190.439 L-15.52,-190.719 L-15.8,-190.998 L-15.8,-191.277 L-16.079,-191.557 L-16.079,-191.836 L-16.358,-192.116 L-16.358,-192.395 L-16.638,-192.675 L-16.638,-192.954 L-16.917,-193.233 L-16.917,-193.513 L-17.197,-193.792 L-17.197,-194.072 L-17.476,-194.351 L-17.476,-194.91 L-17.756,-195.189 L-17.756,-196.028 L-18.035,-196.307 L-18.035,-197.984 L-18.314,-198.263 L-18.314,-199.94 L-18.035,-200.219 L-18.035,-201.896 L-17.756,-202.175 L-17.756,-203.013 L-17.476,-203.293 L-17.476,-203.851 L-17.197,-204.131 L-17.197,-204.41 L-16.917,-204.69 L-16.917,-204.969 L-16.638,-205.249 L-16.638,-205.528 L-16.358,-205.807 L-16.079,-206.087 L-16.079,-206.366 L-15.8,-206.646 L-15.8,-207.763 L-15.52,-208.043 L-15.52,-211.955 L-15.8,-212.234 L-15.8,-212.514 L-16.079,-212.793 L-16.358,-213.072 L-16.638,-213.352 L-16.917,-213.631 L-17.197,-213.631 L-17.476,-213.911 L-17.756,-213.911 L-18.035,-214.19 L-18.314,-214.47 L-18.594,-214.47 L-18.873,-214.749 L-19.153,-215.028 L-19.432,-215.028 L-19.712,-215.308 L-19.991,-215.587 L-20.27,-215.587 L-20.55,-215.867 L-20.829,-216.146 L-21.109,-216.426 L-21.388,-216.426 L-21.668,-216.705 L-21.947,-216.705 L-22.226,-216.984 L-22.506,-217.264 L-23.065,-217.264 L-23.344,-217.543 L-24.462,-217.543 L-24.741,-217.264 L-25.021,-216.984 L-25.3,-216.705 L-25.3,-216.426 L-25.579,-216.146 L-25.579,-215.028 L-25.3,-214.749 L-25.3,-214.19 L-25.021,-213.911 L-25.021,-213.352 L-24.741,-213.072 L-24.741,-212.793 L-24.462,-212.514 L-24.182,-212.234 L-24.182,-211.955 L-23.903,-211.675 L-23.623,-211.396 L-23.623,-211.116 L-23.344,-210.837 L-23.065,-210.558 L-23.065,-210.278 L-22.785,-209.999 L-22.506,-209.719 L-22.506,-209.44 L-22.226,-209.161 L-22.226,-208.881 L-21.947,-208.602 L-21.947,-207.763 L-22.226,-207.484 L-22.506,-207.484 L-22.785,-207.763 L-23.065,-207.763 L-23.344,-208.043 L-23.623,-208.322 L-23.903,-208.602 L-24.182,-208.881 L-24.182,-209.161 L-24.462,-209.44 L-24.741,-209.719 L-24.741,-209.999 L-25.021,-210.278 L-25.3,-210.278 L-25.579,-209.999 L-25.859,-209.719 L-25.859,-209.44 L-26.138,-209.161 L-26.138,-208.322 L-25.859,-208.043 L-25.859,-207.205 L-25.579,-206.925 L-25.579,-206.366 L-25.3,-206.087 L-25.3,-205.528 L-25.021,-205.249 L-25.021,-204.69 L-24.741,-204.41 L-24.741,-203.851 L-24.462,-203.572 L-24.462,-203.013 L-24.182,-202.734 L-24.182,-201.616 L-23.903,-201.337 L-23.903,-201.057 L-24.182,-200.778 L-24.182,-200.219 L-24.462,-199.94 L-24.182,-199.94 L-24.741,-199.66 L-25.021,-199.66 L-25.3,-199.94 L-25.579,-199.94 L-25.859,-200.219 L-25.859,-200.498 L-26.138,-200.778 L-26.138,-201.057 L-26.418,-201.337 L-26.418,-201.896 L-26.697,-202.175 L-26.697,-204.131 L-26.977,-204.41 L-26.977,-206.087 L-27.256,-206.366 L-27.256,-208.043 L-27.535,-208.322 L-27.535,-208.602 L-27.815,-208.881 L-28.094,-208.602 L-28.374,-208.322 L-28.653,-208.043 L-28.933,-207.763 L-28.933,-207.484 L-29.212,-207.205 L-29.491,-206.925 L-29.491,-206.646 L-29.771,-206.366 L-29.771,-205.807 L-30.05,-205.528 L-30.05,-204.969 L-30.33,-204.69 L-30.33,-204.131 L-30.609,-203.851 L-30.609,-203.572 L-30.888,-203.293 L-30.888,-203.013 L-31.168,-202.734 L-31.168,-202.454 L-31.447,-202.175 L-32.565,-202.175 L-32.844,-202.454 L-32.844,-203.293 L-32.565,-203.572 L-32.565,-203.851 L-32.286,-204.131 L-32.006,-204.41 L-32.006,-204.69 L-31.727,-204.969 L-31.447,-205.249 L-31.447,-205.528 L-31.168,-205.807 L-30.888,-206.087 L-30.609,-206.366 L-30.609,-206.646 L-30.33,-206.925 L-30.05,-207.205 L-29.771,-207.484 L-29.771,-207.763 L-29.491,-208.043 L-29.491,-208.881 L-29.771,-209.161 L-30.33,-209.161 L-30.609,-208.881 L-30.888,-208.602 L-31.168,-208.322 L-31.447,-208.043 L-31.727,-207.763 L-32.006,-207.484 L-32.286,-207.205 L-32.565,-206.925 L-32.565,-206.646 L-32.844,-206.366 L-33.124,-206.087 L-33.403,-205.807 L-33.683,-205.807 L-33.962,-205.528 L-34.242,-205.249 L-34.8,-205.249 L-35.08,-205.528 L-35.359,-205.807 L-35.359,-206.646 L-35.08,-206.925 L-34.8,-207.205 L-34.8,-207.484 L-34.521,-207.763 L-34.242,-208.043 L-33.962,-208.322 L-33.683,-208.322 L-33.403,-208.602 L-33.124,-208.881 L-32.844,-209.161 L-32.565,-209.161 L-32.286,-209.44 L-32.006,-209.719 L-31.727,-209.719 L-31.447,-209.999 L-31.168,-210.278 L-30.888,-210.558 L-30.609,-210.837 L-30.33,-211.116 L-30.609,-211.396 L-30.888,-211.116 L-31.168,-211.116 L-31.447,-210.837 L-31.727,-210.558 L-32.006,-210.558 L-32.286,-210.278 L-32.565,-210.278 L-32.844,-209.999 L-33.124,-209.999 L-33.403,-210.278 L-33.403,-210.558 L-33.683,-210.837 L-33.683,-211.116 L-33.403,-211.396 L-33.403,-211.675 L-33.124,-211.955 L-32.565,-211.955 L-32.286,-212.234 L-32.006,-212.514 L-31.727,-212.793 L-31.447,-212.793 L-31.168,-213.072 L-30.888,-213.352 L-30.609,-213.631 L-30.33,-213.911 L-30.05,-214.19 L-29.771,-214.47 L-29.491,-214.749 L-29.491,-215.028 L-29.212,-215.308 L-28.933,-215.587 L-28.933,-215.867 L-28.653,-216.146 L-28.653,-216.705 L-28.374,-216.984 L-28.374,-217.543 L-28.094,-217.823 L-28.094,-218.382 L-27.815,-218.661 L-27.815,-219.22 L-27.535,-219.499 L-27.535,-220.058 L-27.256,-220.337 L-27.256,-220.617 L-26.977,-220.896 L-26.697,-221.176 L-26.697,-221.455 L-26.418,-221.735 L-26.138,-221.735 L-25.859,-222.014 L-25.579,-222.014 L-25.3,-222.293 L-23.344,-222.293 L-23.065,-222.014 L-22.785,-221.735 L-22.506,-221.735 L-22.226,-221.455 L-22.226,-221.176 L-21.947,-220.896 L-21.668,-220.617 L-21.388,-220.337 L-21.109,-220.058 L-20.829,-219.779 L-20.55,-219.499 L-20.27,-219.22 L-19.991,-219.22 L-19.712,-218.94 L-19.153,-218.94 L-18.873,-218.661 L-18.314,-218.661 L-18.035,-218.94 L-18.035,-219.22 L-18.314,-219.499 L-18.594,-219.779 L-18.594,-220.058 L-18.873,-220.337 L-19.153,-220.617 L-19.153,-220.896 L-19.432,-221.176 L-19.432,-221.455 L-19.712,-221.735 L-19.991,-222.014 L-19.991,-222.293 L-20.27,-222.573 L-20.27,-222.852 L-20.55,-223.132 L-20.829,-223.411 L-20.829,-223.691 L-21.109,-223.97 L-21.109,-224.249 L-21.388,-224.529 L-21.388,-225.088 L-21.668,-225.367 L-21.668,-225.647 L-21.947,-225.926 L-21.947,-226.205 L-22.226,-226.485 L-22.226,-227.044 L-22.506,-227.323 L-22.506,-227.882 L-22.785,-228.161 L-22.785,-228.441 L-23.065,-228.72 L-23.065,-229.558 L-23.344,-229.838 L-23.344,-230.397 L-23.623,-230.676 L-23.623,-231.235 L-23.903,-231.514 L-23.903,-232.073 L-24.182,-232.353 L-24.182,-232.912 L-24.462,-233.191 L-24.462,-234.029 L-24.741,-234.309 L-24.741,-235.147 L-25.021,-235.426 L-25.021,-241.294 L-24.741,-241.574 L-24.741,-242.971 L-24.462,-243.25 L-24.462,-244.368 L-24.182,-244.647 L-24.182,-246.324 L-23.903,-246.603 L-23.903,-247.442 L-24.182,-247.721 L-24.182,-248.839 L-24.462,-249.118 L-24.741,-249.398 L-25.021,-249.677 L-25.3,-249.956 L-25.579,-250.236 L-25.859,-250.236 L-26.138,-250.515 L-27.535,-250.515 L-27.815,-250.236 L-28.094,-250.236 L-28.374,-249.956 L-28.653,-249.956 L-28.933,-249.677 L-29.212,-249.398 L-29.491,-249.118 L-29.771,-249.118 L-30.05,-248.839 L-30.33,-248.559 L-30.609,-248.28 L-30.609,-248.0 L-30.888,-247.721 L-31.168,-247.442 L-31.447,-247.162 L-31.727,-246.883 L-32.006,-246.603 L-32.006,-246.324 L-32.286,-246.044 L-32.565,-245.765 L-32.565,-245.486 L-32.844,-245.206 L-33.124,-244.927 L-33.124,-244.647 L-33.403,-244.368 L-33.403,-244.089 L-33.683,-243.809 L-33.683,-243.53 L-33.962,-243.25 L-33.962,-242.691 L-34.242,-242.412 L-34.242,-241.015 L-33.962,-240.735 L-33.962,-239.897 L-33.683,-239.618 L-33.683,-239.338 L-33.403,-239.059 L-33.403,-238.779 L-33.124,-238.5 L-32.844,-238.221 L-32.844,-237.941 L-32.565,-237.662 L-32.565,-237.382 L-32.286,-237.103 L-32.006,-236.823 L-32.006,-235.985 L-31.727,-235.706 L-31.727,-235.426 L-32.006,-235.147 L-32.006,-234.588 L-32.286,-234.309 L-33.403,-234.309 L-33.683,-234.588 L-33.683,-234.868 L-33.962,-235.147 L-33.962,-235.706 L-34.242,-235.985 L-34.242,-236.823 L-34.521,-237.103 L-34.521,-237.941 L-34.8,-238.221 L-34.8,-239.059 L-35.08,-239.338 L-35.08,-239.897 L-35.359,-240.177 L-35.639,-240.456 L-35.639,-240.735 L-35.918,-241.015 L-36.198,-241.294 L-36.477,-241.574 L-36.756,-241.294 L-36.756,-241.015 L-37.036,-240.735 L-37.036,-240.177 L-37.315,-239.897 L-37.315,-239.338 L-37.595,-239.059 L-37.595,-238.5 L-37.874,-238.221 L-37.874,-237.662 L-38.154,-237.382 L-38.154,-236.823 L-38.433,-236.544 L-38.712,-236.265 L-38.992,-235.985 L-39.271,-235.985 L-39.551,-235.706 L-40.109,-235.706 L-40.389,-235.985 L-40.668,-236.265 L-40.948,-236.544 L-40.948,-237.103 L-40.668,-237.382 L-40.668,-237.662 L-40.389,-237.941 L-40.389,-238.221 L-40.109,-238.5 L-39.83,-238.779 L-39.83,-239.059 L-39.551,-239.338 L-39.271,-239.618 L-38.992,-239.897 L-38.992,-240.177 L-38.712,-240.456 L-38.433,-240.735 L-38.154,-241.015 L-38.154,-241.294 L-37.874,-241.574 L-38.154,-241.853 L-38.433,-241.853 L-38.712,-241.574 L-39.271,-241.574 L-39.551,-241.294 L-39.83,-241.015 L-40.109,-241.015 L-40.389,-240.735 L-40.668,-240.456 L-40.948,-240.177 L-41.227,-239.897 L-41.507,-239.618 L-41.786,-239.338 L-42.065,-239.059 L-42.065,-238.779 L-42.345,-238.5 L-42.624,-238.221 L-42.904,-238.221 L-43.183,-237.941 L-43.742,-237.941 L-44.021,-237.662 L-44.301,-237.941 L-44.58,-237.941 L-44.86,-238.221 L-44.86,-239.338 L-44.58,-239.618 L-44.301,-239.897 L-44.021,-240.177 L-43.742,-240.456 L-43.463,-240.456 L-43.183,-240.735 L-42.904,-241.015 L-42.624,-241.015 L-42.345,-241.294 L-42.065,-241.294 L-41.786,-241.574 L-41.507,-241.574 L-41.227,-241.853 L-40.948,-242.133 L-40.668,-242.412 L-40.389,-242.412 L-40.109,-242.691 L-40.389,-242.971 L-40.948,-242.971 L-41.227,-242.691 L-41.786,-242.691 L-42.065,-242.412 L-42.904,-242.412 L-43.183,-242.133 L-43.742,-242.133 L-44.021,-241.853 L-44.86,-241.853 L-45.139,-241.574 L-45.698,-241.574 L-45.977,-241.294 L-47.095,-241.294 L-47.374,-241.015 L-49.61,-241.015 L-49.889,-241.294 L-50.169,-241.294 L-50.448,-241.574 L-50.728,-242.133" fill="rgb(255,0,0)" stroke-width="0.2" stroke="rgb(85,0,0)" />

</svg>
